<svg width="20" height="21" viewBox="0 0 20 21" fill="none" xmlns="http://www.w3.org/2000/svg">
<path d="M11.1635 10.5L7.60259 6.93911C7.4872 6.82374 7.42817 6.69607 7.4255 6.55611C7.42282 6.41617 7.48185 6.28584 7.60259 6.16511C7.72331 6.04438 7.85231 5.98401 7.98959 5.98401C8.12686 5.98401 8.25822 6.04672 8.38365 6.17215L12.2468 10.0353C12.3109 10.105 12.359 10.1782 12.391 10.255C12.4231 10.3318 12.4391 10.4149 12.4391 10.5042C12.4391 10.5935 12.4231 10.6766 12.391 10.7534C12.359 10.8302 12.3109 10.9007 12.2468 10.9648L8.38365 14.8279C8.26356 14.948 8.13702 15.0059 8.004 15.0016C7.871 14.9973 7.74414 14.9348 7.62342 14.8141C7.50268 14.6934 7.44231 14.5644 7.44231 14.4271C7.44231 14.2898 7.50268 14.1608 7.62342 14.0401L11.1635 10.5Z" fill="white"/>
</svg>
