<svg width="217" height="181" viewBox="0 0 217 181" fill="none" xmlns="http://www.w3.org/2000/svg">
<g filter="url(#filter0_dd_1_296)">
<rect width="134" height="128" rx="20" transform="matrix(0.978148 -0.207912 0.431141 0.902284 30 28)" fill="url(#paint0_linear_1_296)" shape-rendering="crispEdges"/>
<g clip-path="url(#clip0_1_296)">
<path d="M108.199 75.3167C107.818 75.1403 107.433 74.9629 107.047 74.7831C109.36 70.2772 111.35 64.9227 108.448 58.85C105.546 52.7772 99.2783 49.1779 93.4824 46.3948C93.641 46.0993 93.8007 45.8062 93.9587 45.5152C96.0085 41.7468 97.7778 38.4925 96.3509 35.5063L95.9761 34.7221L94.2644 35.0859L94.6391 35.8701C94.886 36.3869 94.9901 36.9401 94.9914 37.5229L82.0916 40.2649C81.587 39.789 81.192 39.2977 80.945 38.7809L80.5703 37.9967L78.8586 38.3606L79.2333 39.1447C80.6602 42.1309 84.9265 44.1024 89.868 46.3856C90.2492 46.562 90.6338 46.7394 91.0195 46.9191C88.7065 51.425 86.7169 56.7795 89.6187 62.8523C92.5205 68.925 98.7884 72.5243 104.584 75.3075C104.426 75.6029 104.266 75.896 104.108 76.187C102.058 79.9554 100.289 83.2098 101.716 86.1959L102.091 86.9801L103.802 86.6163L103.428 85.8321C103.181 85.3153 103.077 84.7621 103.075 84.1793L115.976 81.4372C116.48 81.9132 116.875 82.4046 117.122 82.9213L117.496 83.7055L119.208 83.3417L118.833 82.5575C117.407 79.5713 113.14 77.5999 108.199 75.3167ZM98.9178 70.4746C98.2327 70.0294 97.5704 69.5629 96.9316 69.0724L107.88 66.7452C107.785 67.3916 107.649 68.0279 107.477 68.6554L107.435 68.5676L98.8758 70.3868L98.9178 70.4746ZM90.1868 54.957C90.2823 54.3104 90.4177 53.6744 90.5902 53.0468L90.6322 53.1347L99.191 51.3155L99.149 51.2276C99.8337 51.6721 100.496 52.1394 101.135 52.6299L99.0845 53.0657L99.8339 54.6341L102.788 54.0063C103.281 54.4604 103.743 54.9408 104.185 55.437L90.1356 58.4232C90.0654 57.8481 90.0249 57.278 90.0341 56.7171L98.1222 54.998L97.3727 53.4296L90.1868 54.957ZM105.376 56.9115C105.721 57.3978 106.032 57.9106 106.323 58.4378L90.9951 61.6959C90.7747 61.1536 90.5827 60.6156 90.4434 60.0855L105.376 56.9115ZM92.6908 64.7908C92.3453 64.3044 92.0352 63.7916 91.7437 63.2644L107.072 60.0064C107.292 60.5486 107.484 61.0866 107.623 61.6168L97.5899 63.7494L98.3393 65.3178L107.931 63.279C108.001 63.8541 108.042 64.4242 108.033 64.9851L95.2792 67.6959C94.786 67.2419 94.3235 66.7614 93.8819 66.2653L96.6275 65.6817L95.8781 64.1133L92.6908 64.7908ZM83.8646 41.6157L94.7172 39.3089C94.5442 39.9097 94.2982 40.5373 94.0048 41.188L86.0759 42.8733C85.2721 42.4559 84.5261 42.0391 83.8646 41.6157ZM90.4991 44.9954C89.8261 44.6841 89.1692 44.3806 88.5302 44.0793L93.0484 43.1189C92.7887 43.6112 92.517 44.1121 92.2382 44.6257C92.0708 44.9343 91.9001 45.2479 91.7291 45.565C91.3138 45.3725 90.9034 45.1825 90.4991 44.9954ZM92.7708 47.745C94.2501 48.4534 95.7343 49.1995 97.1671 50.018L91.1571 51.2954C91.6158 50.075 92.1789 48.8936 92.7708 47.745ZM100.9 71.6843L106.91 70.4068C106.451 71.6273 105.888 72.8086 105.296 73.9572C103.817 73.2489 102.332 72.5027 100.9 71.6843ZM105.828 77.0765C105.996 76.7679 106.167 76.4543 106.338 76.1373C106.753 76.3305 107.164 76.5206 107.568 76.7068C108.241 77.0182 108.898 77.3217 109.536 77.6231L105.017 78.5835C105.277 78.0912 105.55 77.5901 105.828 77.0765ZM103.35 82.3934C103.523 81.7925 103.769 81.1649 104.062 80.5143L111.992 78.8288C112.795 79.2462 113.541 79.6631 114.203 80.0864L103.35 82.3934Z" fill="white"/>
<path d="M147.022 70.5191L145.641 70.8125C146.06 67.0359 145.326 63.0246 143.488 59.1766C140.463 52.8459 134.683 47.4219 127.574 44.1976L128.88 41.5747L126.417 40.3695L128.144 36.9057L129.379 37.5096L131.479 33.2339L122.349 28.7536L120.259 33.0497L121.48 33.6471L119.748 37.106L117.295 35.9057L110.559 49.4313L108.098 48.2267L105.974 52.4911L122.481 60.5699L124.605 56.3055L122.144 55.101L124.843 49.6811C128.289 51.1991 131.372 53.4574 133.693 56.1619C132.307 56.7969 131.752 58.2935 132.468 59.7913C133.282 61.4954 135.436 62.5622 137.304 62.21C137.55 62.88 137.748 63.5548 137.902 64.2295C137.12 64.1349 136.331 64.1532 135.572 64.3145L122.734 67.0434C120.374 67.5449 119.295 69.7119 120.328 71.8739L120.703 72.6581L131.897 70.2785C131.98 70.5443 132.076 70.8107 132.204 71.0773L133.328 73.4298L121.346 75.9768C118.986 76.4783 117.907 78.6453 118.94 80.8073L120.064 83.1599L154.299 75.883L153.175 73.5304C152.142 71.3684 149.382 70.0175 147.022 70.5191ZM123.42 30.9793L129.065 33.7504L128.311 35.2886L122.667 32.5284L123.42 30.9793ZM123.22 34.4978L126.403 36.0542L124.677 39.5171L121.489 37.9567L123.22 34.4978ZM121.421 58.3514L108.394 51.9759L109.157 50.4436L122.184 56.8192L121.421 58.3514ZM112.299 50.2821L118.355 38.1226L126.459 42.0891L120.403 54.2486L112.299 50.2821ZM134.18 59.4275C133.766 58.5625 134.198 57.6959 135.142 57.4953C136.086 57.2946 137.19 57.8348 137.603 58.6998C138.016 59.5647 137.585 60.4313 136.641 60.632C135.697 60.8327 134.593 60.2924 134.18 59.4275ZM138.858 61.4331C139.644 60.6734 139.875 59.5091 139.315 58.3359C138.652 56.9495 137.103 55.9952 135.542 55.8718C132.979 52.7124 129.47 50.0678 125.525 48.3131L126.894 45.5645C133.543 48.5628 138.95 53.6261 141.776 59.5405C143.105 62.3212 143.819 65.1928 143.891 67.9833C142.998 66.499 141.51 65.344 139.84 64.7101C139.623 63.6158 139.294 62.517 138.858 61.4331ZM121.811 70.6948C121.729 69.7068 122.367 68.849 123.483 68.6117L132.136 66.7725C131.849 67.3294 131.691 67.9478 131.666 68.6001L121.811 70.6948ZM151.838 74.6784L121.026 81.2276L120.651 80.4435C120.032 79.1464 120.679 77.846 122.095 77.5451L137.501 74.2705L136.751 72.7022L135.04 73.066L133.915 70.7134C132.882 68.5514 133.962 66.3845 136.321 65.8829C138.681 65.3813 141.441 66.7322 142.474 68.8942L143.598 71.2468L138.463 72.3383L139.213 73.9067L147.771 72.0875C149.187 71.7866 150.843 72.5972 151.463 73.8942L151.838 74.6784Z" fill="white"/>
</g>
<path d="M106.961 113.523L108.46 114.278C108.317 114.809 108.022 115.265 107.575 115.647C107.125 116.021 106.579 116.276 105.937 116.412C105.334 116.54 104.732 116.561 104.131 116.474C103.525 116.38 102.949 116.193 102.401 115.912C101.849 115.623 101.35 115.256 100.905 114.81C100.463 114.355 100.103 113.836 99.8234 113.251C99.544 112.666 99.3888 112.107 99.3577 111.573C99.3344 111.037 99.4244 110.549 99.6275 110.108C99.835 109.658 100.147 109.282 100.562 108.979C100.982 108.667 101.501 108.446 102.119 108.314C102.761 108.178 103.416 108.178 104.084 108.314C104.757 108.441 105.39 108.7 105.982 109.091L105.414 110.285C104.991 109.978 104.546 109.766 104.077 109.651C103.613 109.527 103.161 109.512 102.723 109.605C102.23 109.71 101.849 109.922 101.579 110.242C101.306 110.554 101.158 110.94 101.136 111.398C101.113 111.856 101.231 112.355 101.49 112.897C101.749 113.438 102.088 113.895 102.507 114.267C102.923 114.632 103.379 114.893 103.876 115.049C104.37 115.199 104.864 115.221 105.357 115.116C105.795 115.023 106.153 114.836 106.432 114.554C106.711 114.272 106.888 113.928 106.961 113.523ZM112.176 114.895L110.592 115.232L106.892 107.49L110.12 106.804C110.684 106.685 111.225 106.681 111.744 106.793C112.268 106.897 112.731 107.1 113.135 107.404C113.547 107.706 113.865 108.092 114.089 108.561C114.344 109.095 114.408 109.59 114.281 110.047C114.159 110.494 113.875 110.856 113.43 111.134L117.482 113.767L115.557 114.177L111.818 111.656L110.738 111.885L112.176 114.895ZM110.71 108.039L109.067 108.388L110.148 110.651L111.791 110.302C112.175 110.22 112.428 110.055 112.55 109.806C112.681 109.556 112.661 109.254 112.492 108.9C112.327 108.554 112.082 108.304 111.759 108.15C111.443 107.994 111.094 107.957 110.71 108.039ZM120.464 113.134L118.879 113.47L115.18 105.729L116.765 105.392L120.464 113.134ZM121.348 111.562L121.927 110.366C122.389 110.665 122.895 110.867 123.446 110.973C123.996 111.079 124.522 111.078 125.023 110.972C125.539 110.862 125.9 110.678 126.104 110.42C126.316 110.16 126.343 109.864 126.184 109.532C126.039 109.229 125.78 109.022 125.408 108.91C125.032 108.791 124.486 108.756 123.768 108.805C122.655 108.875 121.765 108.782 121.1 108.526C120.434 108.27 119.955 107.835 119.662 107.221C119.431 106.738 119.364 106.291 119.461 105.88C119.554 105.463 119.789 105.107 120.166 104.812C120.547 104.509 121.042 104.292 121.652 104.162C122.349 104.014 123.044 103.998 123.736 104.113C124.429 104.228 125.077 104.456 125.68 104.797L125.131 105.975C124.66 105.694 124.182 105.505 123.697 105.409C123.216 105.305 122.737 105.303 122.259 105.405C121.798 105.503 121.465 105.673 121.262 105.915C121.066 106.155 121.044 106.434 121.196 106.752C121.327 107.026 121.568 107.214 121.917 107.314C122.264 107.408 122.794 107.434 123.507 107.394C124.647 107.326 125.559 107.431 126.243 107.707C126.934 107.981 127.438 108.451 127.756 109.115C127.983 109.591 128.044 110.043 127.938 110.471C127.837 110.891 127.584 111.254 127.18 111.563C126.784 111.87 126.253 112.094 125.588 112.235C124.868 112.388 124.144 112.407 123.416 112.291C122.689 112.176 121.999 111.933 121.348 111.562ZM132.041 110.673L130.456 111.01L126.757 103.268L129.985 102.582C130.549 102.462 131.09 102.458 131.609 102.571C132.133 102.674 132.596 102.878 133 103.182C133.411 103.484 133.729 103.869 133.954 104.338C134.178 104.808 134.255 105.249 134.185 105.661C134.119 106.065 133.919 106.413 133.585 106.707C133.256 106.991 132.809 107.194 132.246 107.313L130.603 107.663L132.041 110.673ZM130.575 103.816L128.932 104.166L130.013 106.428L131.656 106.079C132.04 105.998 132.293 105.833 132.415 105.584C132.546 105.334 132.526 105.032 132.357 104.678C132.192 104.331 131.947 104.081 131.624 103.927C131.308 103.772 130.958 103.735 130.575 103.816ZM139.687 109.048L138.102 109.384L134.403 101.643L137.631 100.957C138.194 100.837 138.735 100.833 139.255 100.946C139.778 101.049 140.242 101.253 140.646 101.556C141.057 101.859 141.375 102.244 141.599 102.713C141.854 103.248 141.919 103.743 141.792 104.199C141.67 104.647 141.386 105.009 140.941 105.286L144.992 107.92L143.067 108.329L139.328 105.808L138.248 106.038L139.687 109.048ZM138.221 102.191L136.577 102.54L137.659 104.803L139.302 104.454C139.685 104.373 139.938 104.207 140.061 103.959C140.191 103.708 140.172 103.406 140.003 103.053C139.837 102.706 139.593 102.456 139.269 102.302C138.954 102.147 138.604 102.11 138.221 102.191ZM147.297 104.794L144.187 105.455L143.602 104.232L146.712 103.571L147.297 104.794ZM154.703 103.375L156.202 104.13C156.059 104.661 155.764 105.117 155.317 105.499C154.867 105.873 154.321 106.128 153.679 106.264C153.076 106.392 152.474 106.413 151.873 106.326C151.267 106.232 150.691 106.045 150.143 105.764C149.591 105.475 149.092 105.108 148.647 104.662C148.205 104.208 147.845 103.688 147.565 103.103C147.286 102.518 147.131 101.959 147.1 101.425C147.076 100.889 147.166 100.401 147.37 99.9602C147.577 99.5105 147.889 99.1342 148.304 98.8312C148.724 98.5193 149.243 98.2977 149.861 98.1663C150.503 98.0299 151.158 98.0298 151.826 98.166C152.499 98.2933 153.132 98.5525 153.724 98.9435L153.156 100.138C152.734 99.8299 152.288 99.6185 151.819 99.5034C151.355 99.3795 150.903 99.3641 150.465 99.4572C149.972 99.562 149.591 99.7743 149.321 100.094C149.048 100.406 148.9 100.792 148.878 101.25C148.855 101.708 148.973 102.207 149.232 102.749C149.491 103.29 149.83 103.747 150.249 104.119C150.665 104.484 151.121 104.745 151.618 104.901C152.112 105.051 152.606 105.073 153.099 104.968C153.537 104.875 153.895 104.688 154.174 104.406C154.453 104.124 154.63 103.78 154.703 103.375ZM165.383 103.586L163.67 103.95L162.212 102.387L158.843 103.103L158.998 104.943L157.355 105.292L156.79 96.8844L158.55 96.5102L165.383 103.586ZM158.723 101.769L161.153 101.253L158.416 98.3397L158.723 101.769ZM165.227 102.235L165.806 101.039C166.268 101.338 166.775 101.541 167.325 101.646C167.875 101.752 168.401 101.752 168.902 101.645C169.418 101.535 169.779 101.351 169.983 101.093C170.195 100.834 170.222 100.538 170.063 100.206C169.918 99.9024 169.659 99.695 169.287 99.5833C168.911 99.4644 168.365 99.4295 167.647 99.4787C166.534 99.5483 165.644 99.4551 164.979 99.199C164.313 98.9428 163.834 98.508 163.541 97.8944C163.31 97.4108 163.243 96.9639 163.34 96.5536C163.434 96.1362 163.668 95.7801 164.045 95.4854C164.426 95.1818 164.921 94.9652 165.532 94.8354C166.228 94.6874 166.923 94.671 167.616 94.7861C168.308 94.9012 168.956 95.1293 169.559 95.4703L169.01 96.6485C168.539 96.3669 168.061 96.1783 167.576 96.0827C167.095 95.9782 166.616 95.9766 166.138 96.0781C165.677 96.1762 165.344 96.3463 165.141 96.5883C164.945 96.8286 164.923 97.1076 165.075 97.4252C165.206 97.6995 165.447 97.8869 165.796 97.9875C166.143 98.0809 166.673 98.1074 167.386 98.0671C168.526 97.9997 169.438 98.104 170.122 98.3802C170.813 98.6546 171.317 99.1239 171.635 99.788C171.862 100.264 171.923 100.717 171.818 101.145C171.716 101.564 171.463 101.928 171.059 102.236C170.663 102.543 170.132 102.767 169.467 102.909C168.747 103.062 168.023 103.08 167.295 102.965C166.568 102.849 165.878 102.606 165.227 102.235ZM173.195 93.2066C173.797 93.0785 174.39 93.0918 174.972 93.2463C175.551 93.3936 176.076 93.6635 176.549 94.0562C177.017 94.4416 177.393 94.9302 177.676 95.5221C177.952 96.0996 178.109 96.6823 178.149 97.2703C178.193 97.8493 178.112 98.455 177.905 99.0873C177.699 99.7196 177.358 100.404 176.883 101.141L174.829 101.578C175.33 100.788 175.707 100.107 175.961 99.5364C176.222 98.9641 176.385 98.4403 176.451 97.9651C176.238 98.3126 175.861 98.5437 175.321 98.6585C174.805 98.7683 174.291 98.7581 173.781 98.6281C173.271 98.498 172.805 98.2631 172.384 97.9232C171.959 97.5761 171.625 97.1463 171.38 96.6338C171.125 96.0996 171.032 95.5985 171.101 95.1305C171.167 94.6553 171.378 94.2487 171.734 93.9107C172.097 93.5711 172.584 93.3364 173.195 93.2066ZM173.74 94.4026C173.286 94.4991 172.984 94.7225 172.832 95.0727C172.677 95.4158 172.706 95.8111 172.92 96.2586C173.131 96.6989 173.448 97.0291 173.872 97.249C174.293 97.4618 174.73 97.5199 175.184 97.4235C175.638 97.327 175.945 97.1145 176.107 96.7858C176.266 96.45 176.236 96.0547 176.019 95.6C175.809 95.1596 175.486 94.8267 175.051 94.6012C174.623 94.374 174.186 94.3078 173.74 94.4026Z" fill="white"/>
<rect width="134" height="128" rx="20" transform="matrix(0.978148 -0.207912 0.431141 0.902284 30 28)" stroke="url(#paint1_linear_1_296)" stroke-width="3" shape-rendering="crispEdges"/>
</g>
<defs>
<filter id="filter0_dd_1_296" x="-5" y="0.139893" width="226.258" height="183.353" filterUnits="userSpaceOnUse" color-interpolation-filters="sRGB">
<feFlood flood-opacity="0" result="BackgroundImageFix"/>
<feColorMatrix in="SourceAlpha" type="matrix" values="0 0 0 0 0 0 0 0 0 0 0 0 0 0 0 0 0 0 127 0" result="hardAlpha"/>
<feOffset dx="-3" dy="5"/>
<feComposite in2="hardAlpha" operator="out"/>
<feColorMatrix type="matrix" values="0 0 0 0 0.152941 0 0 0 0 0.333333 0 0 0 0 0.65098 0 0 0 1 0"/>
<feBlend mode="normal" in2="BackgroundImageFix" result="effect1_dropShadow_1_296"/>
<feColorMatrix in="SourceAlpha" type="matrix" values="0 0 0 0 0 0 0 0 0 0 0 0 0 0 0 0 0 0 127 0" result="hardAlpha"/>
<feOffset dx="-15" dy="20"/>
<feGaussianBlur stdDeviation="10"/>
<feComposite in2="hardAlpha" operator="out"/>
<feColorMatrix type="matrix" values="0 0 0 0 0 0 0 0 0 0.180392 0 0 0 0 0.45098 0 0 0 0.12 0"/>
<feBlend mode="normal" in2="effect1_dropShadow_1_296" result="effect2_dropShadow_1_296"/>
<feBlend mode="normal" in="SourceGraphic" in2="effect2_dropShadow_1_296" result="shape"/>
</filter>
<linearGradient id="paint0_linear_1_296" x1="67" y1="0" x2="67" y2="128" gradientUnits="userSpaceOnUse">
<stop stop-color="#6CDBF9"/>
<stop offset="1" stop-color="#1A3C96"/>
</linearGradient>
<linearGradient id="paint1_linear_1_296" x1="67" y1="0" x2="67" y2="128" gradientUnits="userSpaceOnUse">
<stop stop-color="#6BD8F7"/>
<stop offset="1" stop-color="#10358D"/>
</linearGradient>
<clipPath id="clip0_1_296">
<rect width="56" height="56" fill="white" transform="matrix(0.978148 -0.207912 0.431141 0.902284 76.7706 37.9371)"/>
</clipPath>
</defs>
</svg>
