<svg width="215" height="180" viewBox="0 0 215 180" fill="none" xmlns="http://www.w3.org/2000/svg">
<g filter="url(#filter0_dd_1_342)">
<rect width="133" height="127.109" rx="20" transform="matrix(0.978148 -0.207912 0.431141 0.902284 30 27.7921)" fill="url(#paint0_linear_1_342)" shape-rendering="crispEdges"/>
<g clip-path="url(#clip0_1_342)">
<path d="M126.448 54.6183C125.757 53.1443 124.695 51.773 123.351 50.6186C122.007 49.4642 120.421 48.5603 118.723 47.9821L111.612 45.5726L114.661 41.7526C115.784 40.3427 116.447 38.6524 116.595 36.8231C116.743 34.9938 116.371 33.0786 115.511 31.2375L113.799 31.6014C114.43 32.9682 114.75 34.3836 114.737 35.7589L109.542 36.8631C109.03 36.2334 108.323 35.732 107.528 35.4362C106.733 35.1405 105.895 35.0668 105.144 35.2265C104.392 35.3862 103.769 35.7706 103.37 36.3202C102.97 36.8698 102.817 37.5541 102.934 38.2676L97.7392 39.3719C96.5583 38.2503 95.6154 36.9674 94.9696 35.6037L93.2578 35.9675C94.1198 37.8082 95.4451 39.5208 97.1228 40.9621C98.8005 42.4034 100.782 43.5315 102.902 44.2522L108.65 46.202L104.875 50.9256C103.976 52.055 103.446 53.4089 103.328 54.8741C103.21 56.3394 103.508 57.8733 104.198 59.3476C104.888 60.822 105.949 62.1939 107.292 63.3485C108.635 64.5031 110.222 65.407 111.92 65.9844L119.032 68.3939L116.512 71.596C115.229 73.1913 114.469 75.1066 114.293 77.1815C114.118 79.2564 114.533 81.4304 115.503 83.5215L117.215 83.1577C116.585 81.8044 116.219 80.4075 116.132 79.0311L121.472 77.8959C121.984 78.5256 122.691 79.0271 123.486 79.3228C124.281 79.6186 125.119 79.6923 125.87 79.5326C126.622 79.3728 127.245 78.9885 127.645 78.4389C128.044 77.8893 128.197 77.205 128.08 76.4915L133.42 75.3563C134.52 76.5174 135.409 77.8034 136.044 79.1554L137.756 78.7916C136.772 76.7034 135.262 74.7621 133.352 73.1304C131.443 71.4986 129.19 70.2239 126.782 69.4129L121.993 67.7645L125.768 63.0409C126.666 61.911 127.197 60.5571 127.315 59.0919C127.433 57.6268 127.136 56.093 126.448 54.6183ZM105.867 36.7728C106.206 36.7008 106.58 36.7235 106.943 36.8378C107.306 36.9521 107.641 37.1531 107.906 37.4152C108.172 37.6773 108.355 37.9888 108.432 38.3103C108.51 38.6319 108.479 38.9489 108.344 39.2215C108.208 39.4941 107.973 39.7099 107.67 39.8416C107.367 39.9734 107.008 40.0151 106.639 39.9616C106.27 39.9082 105.908 39.7618 105.597 39.5411C105.287 39.3204 105.044 39.0353 104.897 38.7218C104.7 38.3014 104.692 37.8599 104.874 37.4944C105.056 37.1288 105.413 36.8693 105.867 36.7728ZM103.29 42.7493C101.907 42.2762 100.589 41.6033 99.3965 40.7623L103.676 39.8527C104.187 40.4824 104.895 40.9839 105.69 41.2796C106.484 41.5754 107.322 41.6491 108.074 41.4894C108.825 41.3296 109.449 40.9453 109.848 40.3957C110.247 39.8461 110.4 39.1618 110.283 38.4483L114.563 37.5387C114.302 38.6885 113.794 39.7496 113.064 40.6717L109.66 44.8808L103.29 42.7493ZM106.476 52.0144L110.587 46.8622L118.339 49.493C119.359 49.8346 120.334 50.3239 121.216 50.9377L114.874 52.2858C114.363 51.6561 113.656 51.1546 112.861 50.8589C112.066 50.5631 111.228 50.4894 110.477 50.6491C109.725 50.8089 109.102 51.1932 108.702 51.7428C108.303 52.2924 108.15 52.9767 108.267 53.6902L105.348 54.3106C105.549 53.4664 105.931 52.6887 106.476 52.0144ZM113.653 53.4167C113.8 53.7302 113.843 54.058 113.777 54.3587C113.711 54.6593 113.538 54.9193 113.282 55.1058C113.025 55.2922 112.695 55.3968 112.335 55.4062C111.974 55.4156 111.599 55.3295 111.255 55.1587C110.912 54.9879 110.617 54.7401 110.407 54.4467C110.197 54.1532 110.082 53.8273 110.076 53.5101C110.07 53.1929 110.174 52.8987 110.374 52.6647C110.574 52.4307 110.861 52.2674 111.2 52.1954C111.654 52.0989 112.167 52.1734 112.628 52.4024C113.088 52.6315 113.457 52.9963 113.653 53.4167ZM105.183 56.0885L109.009 55.2753C109.52 55.905 110.227 56.4065 111.022 56.7022C111.817 56.998 112.655 57.0717 113.406 56.912C114.158 56.7522 114.781 56.3679 115.181 55.8183C115.58 55.2687 115.733 54.5844 115.616 53.8709L122.865 52.33C123.778 53.257 124.481 54.3115 124.927 55.4204C125.372 56.5293 125.55 57.6662 125.446 58.7524L122.023 59.4801C121.511 58.8504 120.804 58.349 120.009 58.0532C119.214 57.7574 118.376 57.6837 117.625 57.8435C116.873 58.0032 116.25 58.3875 115.85 58.9371C115.451 59.4867 115.298 60.1711 115.415 60.8845L108.568 62.3399C107.559 61.4902 106.737 60.4905 106.158 59.4098C105.579 58.3292 105.258 57.1935 105.217 56.0813L105.183 56.0885ZM120.784 60.6147C120.931 60.9282 120.974 61.256 120.908 61.5567C120.842 61.8573 120.669 62.1173 120.413 62.3038C120.156 62.4902 119.827 62.5948 119.466 62.6042C119.105 62.6136 118.73 62.5275 118.387 62.3567C118.043 62.1859 117.748 61.9381 117.538 61.6446C117.328 61.3512 117.213 61.0253 117.207 60.7081C117.201 60.3909 117.305 60.0967 117.505 59.8627C117.705 59.6287 117.993 59.4654 118.331 59.3934C118.785 59.2969 119.299 59.3714 119.759 59.6004C120.219 59.8294 120.588 60.1943 120.784 60.6147ZM125.147 77.9863C124.808 78.0582 124.434 78.0356 124.071 77.9213C123.708 77.8069 123.373 77.606 123.108 77.3439C122.843 77.0818 122.66 76.7703 122.582 76.4488C122.504 76.1272 122.535 75.8101 122.671 75.5376C122.806 75.265 123.041 75.0492 123.344 74.9175C123.647 74.7857 124.006 74.7439 124.375 74.7974C124.744 74.8509 125.107 74.9973 125.417 75.218C125.727 75.4387 125.97 75.7238 126.117 76.0373C126.314 76.4577 126.322 76.8992 126.14 77.2647C125.958 77.6302 125.601 77.8898 125.147 77.9863ZM126.436 70.9067C128.42 71.5824 130.282 72.6196 131.883 73.9403L127.338 74.9064C126.827 74.2767 126.119 73.7752 125.325 73.4795C124.53 73.1837 123.692 73.11 122.94 73.2697C122.189 73.4295 121.565 73.8138 121.166 74.3634C120.767 74.913 120.614 75.5973 120.731 76.3108L116.186 77.2768C116.374 75.5759 117.016 74.0063 118.066 72.6859L120.968 69.0541L126.436 70.9067ZM124.133 61.9594L120.056 67.1043L112.305 64.4736C111.68 64.2605 111.072 63.9924 110.491 63.674L116.14 62.4733C116.651 63.103 117.359 63.6044 118.153 63.9002C118.948 64.196 119.786 64.2697 120.537 64.11C121.289 63.9502 121.913 63.5659 122.312 63.0163C122.711 62.4667 122.864 61.7824 122.747 61.0689L124.972 60.5959C124.767 61.0815 124.497 61.5362 124.167 61.9521L124.133 61.9594Z" fill="white"/>
<path d="M130.203 32.4715C129.77 32.5647 129.393 32.7576 129.105 33.0324C128.817 33.3071 128.629 33.6548 128.557 34.0431C128.485 34.4314 128.532 34.8476 128.694 35.2532C128.856 35.6588 129.127 36.0405 129.482 36.3628L128.512 38.3118C128.093 38.2329 127.676 38.2351 127.292 38.3185C126.763 38.4325 126.318 38.6953 126.019 39.0709C125.719 39.4465 125.58 39.9166 125.62 40.4166L122.744 41.0279C122.295 40.542 121.689 40.1807 121.034 40.008C120.379 39.8352 119.716 39.8621 119.164 40.0838C118.611 40.3056 118.204 40.7079 118.014 41.2197C117.824 41.7315 117.864 42.3199 118.127 42.8808C118.389 43.4417 118.857 43.939 119.448 44.2848C120.039 44.6307 120.715 44.8028 121.356 44.7708C121.998 44.7387 122.563 44.5046 122.953 44.1097C123.342 43.7149 123.531 43.1848 123.486 42.613L126.361 42.0018C126.645 42.307 126.992 42.5651 127.378 42.7573C127.764 42.9495 128.18 43.0711 128.594 43.1131L129.84 45.7762C129.356 46.0845 129.047 46.5547 128.967 47.1036C128.887 47.6526 129.041 48.2449 129.402 48.7759C129.763 49.307 130.307 49.7425 130.94 50.0056C131.572 50.2687 132.251 50.3424 132.857 50.2137C133.462 50.0849 133.956 49.762 134.25 49.3021C134.544 48.8421 134.619 48.2747 134.463 47.7001C134.307 47.1255 133.929 46.5808 133.396 46.1621C132.863 45.7435 132.21 45.4779 131.551 45.4123L130.306 42.7493C130.729 42.4796 131.02 42.0851 131.139 41.6198C131.258 41.1545 131.2 40.6413 130.972 40.1504C130.804 39.7966 130.553 39.466 130.237 39.1826L131.207 37.2336C131.626 37.3125 132.043 37.3103 132.427 37.227C132.811 37.1437 133.152 36.9815 133.425 36.7524C133.699 36.5234 133.897 36.2332 134.006 35.9035C134.115 35.5737 134.131 35.2128 134.054 34.8473C133.977 34.4818 133.808 34.1212 133.561 33.792C133.313 33.4628 132.992 33.1735 132.622 32.9454C132.253 32.7173 131.843 32.5563 131.424 32.4743C131.006 32.3923 130.588 32.3913 130.203 32.4715ZM121.072 43.126C120.903 43.162 120.716 43.1507 120.534 43.0935C120.353 43.0364 120.185 42.9359 120.053 42.8049C119.92 42.6738 119.828 42.518 119.79 42.3573C119.751 42.1965 119.766 42.038 119.834 41.9017C119.902 41.7654 120.019 41.6575 120.171 41.5916C120.322 41.5258 120.502 41.5049 120.686 41.5316C120.871 41.5584 121.052 41.6315 121.207 41.7419C121.362 41.8522 121.484 41.9948 121.557 42.1516C121.656 42.3618 121.66 42.5825 121.569 42.7653C121.478 42.948 121.299 43.0778 121.072 43.126ZM132.112 48.6218C131.943 48.6578 131.755 48.6465 131.574 48.5893C131.392 48.5322 131.225 48.4317 131.092 48.3007C130.96 48.1696 130.868 48.0138 130.829 47.8531C130.79 47.6923 130.806 47.5338 130.874 47.3975C130.942 47.2612 131.059 47.1533 131.21 47.0874C131.362 47.0216 131.542 47.0007 131.726 47.0274C131.911 47.0542 132.092 47.1273 132.247 47.2377C132.402 47.348 132.524 47.4906 132.597 47.6474C132.695 47.8576 132.699 48.0783 132.608 48.2611C132.517 48.4438 132.339 48.5736 132.112 48.6218ZM128.775 41.4887C128.606 41.5247 128.419 41.5134 128.237 41.4562C128.056 41.3991 127.888 41.2986 127.755 41.1676C127.623 41.0365 127.531 40.8807 127.493 40.72C127.454 40.5592 127.469 40.4007 127.537 40.2644C127.605 40.1281 127.722 40.0202 127.874 39.9543C128.025 39.8885 128.205 39.8676 128.389 39.8943C128.574 39.9211 128.755 39.9942 128.91 40.1046C129.065 40.2149 129.187 40.3575 129.26 40.5143C129.358 40.7245 129.363 40.9452 129.272 41.128C129.181 41.3107 129.002 41.4405 128.775 41.4887ZM131.686 35.6418C131.516 35.6778 131.329 35.6665 131.148 35.6093C130.966 35.5521 130.799 35.4517 130.666 35.3206C130.534 35.1896 130.442 35.0338 130.403 34.873C130.364 34.7123 130.38 34.5537 130.448 34.4174C130.515 34.2812 130.633 34.1733 130.784 34.1074C130.936 34.0415 131.116 34.0206 131.3 34.0474C131.484 34.0741 131.666 34.1473 131.821 34.2576C131.976 34.368 132.098 34.5106 132.171 34.6673C132.269 34.8775 132.273 35.0983 132.182 35.281C132.091 35.4638 131.913 35.5936 131.686 35.6418Z" fill="white"/>
<path d="M104.653 72.7573L107.529 72.146C107.978 72.6319 108.584 72.9932 109.239 73.1659C109.894 73.3387 110.556 73.3118 111.109 73.0901C111.662 72.8684 112.069 72.466 112.259 71.9542C112.448 71.4424 112.409 70.854 112.146 70.2932C111.884 69.7323 111.416 69.2349 110.825 68.8891C110.234 68.5432 109.558 68.3711 108.916 68.4032C108.275 68.4352 107.71 68.6694 107.32 69.0642C106.93 69.459 106.742 69.9892 106.787 70.5609L103.911 71.1722C103.518 70.7472 103.004 70.416 102.439 70.2241C101.874 70.0322 101.287 69.9888 100.756 70.1001C100.375 70.1835 100.035 70.3449 99.7633 70.5725L97.31 69.3512C97.3397 68.7904 97.1351 68.2017 96.7324 67.6891C96.3297 67.1765 95.755 66.7731 95.1097 66.5503C94.4645 66.3274 93.7904 66.2995 93.2066 66.4714C92.6229 66.6433 92.1671 67.004 91.9199 67.4896C91.6727 67.9753 91.65 68.5546 91.8559 69.1252C92.0617 69.6957 92.4828 70.2207 93.0447 70.6073C93.6066 70.9939 94.273 71.2172 94.9262 71.2376C95.5793 71.2581 96.1771 71.0744 96.6137 70.7191L99.067 71.9404C99.0525 72.2974 99.1324 72.6676 99.3008 73.0235C99.5318 73.5138 99.9207 73.9568 100.414 74.2918C100.908 74.6268 101.482 74.8374 102.058 74.8947L103.304 77.5577C102.82 77.8661 102.511 78.3363 102.431 78.8852C102.351 79.4341 102.505 80.0265 102.866 80.5575C103.227 81.0886 103.772 81.5241 104.404 81.7872C105.036 82.0503 105.715 82.124 106.321 81.9952C106.926 81.8665 107.42 81.5436 107.714 81.0837C108.008 80.6237 108.083 80.0563 107.927 79.4817C107.771 78.9071 107.393 78.3624 106.86 77.9437C106.328 77.5251 105.674 77.2595 105.016 77.1939L103.77 74.5309C104.073 74.3362 104.31 74.0761 104.463 73.7693C104.616 73.4626 104.68 73.1169 104.653 72.7573ZM109.201 70.0479C109.37 70.0119 109.557 70.0232 109.739 70.0804C109.92 70.1376 110.088 70.238 110.22 70.3691C110.353 70.5001 110.444 70.6559 110.483 70.8167C110.522 70.9774 110.507 71.136 110.439 71.2722C110.371 71.4085 110.254 71.5164 110.102 71.5823C109.95 71.6482 109.771 71.6691 109.586 71.6423C109.402 71.6156 109.221 71.5424 109.066 71.432C108.911 71.3217 108.789 71.1791 108.715 71.0224C108.617 70.8122 108.613 70.5914 108.704 70.4087C108.795 70.2259 108.974 70.0961 109.201 70.0479ZM102.724 72.2958C102.798 72.4526 102.819 72.6165 102.786 72.7668C102.753 72.9171 102.667 73.0471 102.538 73.1404C102.41 73.2336 102.245 73.2859 102.065 73.2906C101.885 73.2953 101.697 73.2522 101.525 73.1668C101.354 73.0814 101.206 72.9575 101.101 72.8108C100.996 72.6641 100.939 72.5011 100.936 72.3425C100.933 72.1839 100.985 72.0368 101.085 71.9198C101.185 71.8028 101.328 71.7212 101.498 71.6852C101.725 71.6369 101.981 71.6742 102.211 71.7887C102.442 71.9032 102.626 72.0856 102.724 72.2958ZM93.6527 68.9958C93.5794 68.8391 93.5579 68.6752 93.591 68.5248C93.6241 68.3745 93.7102 68.2445 93.8385 68.1513C93.9669 68.058 94.1316 68.0058 94.3119 68.0011C94.4923 67.9964 94.6801 68.0394 94.8516 68.1248C95.0232 68.2102 95.1708 68.3341 95.2757 68.4808C95.3806 68.6276 95.4382 68.7905 95.4412 68.9491C95.4442 69.1077 95.3924 69.2548 95.2924 69.3718C95.1924 69.4888 95.0486 69.5705 94.8794 69.6065C94.6524 69.6547 94.3956 69.6175 94.1656 69.503C93.9355 69.3884 93.7511 69.206 93.6527 68.9958ZM105.576 80.4034C105.407 80.4394 105.22 80.4281 105.038 80.3709C104.857 80.3138 104.689 80.2133 104.556 80.0822C104.424 79.9512 104.332 79.7954 104.293 79.6347C104.255 79.4739 104.27 79.3154 104.338 79.1791C104.406 79.0428 104.523 78.9349 104.675 78.869C104.826 78.8031 105.006 78.7823 105.19 78.809C105.375 78.8358 105.556 78.9089 105.711 79.0193C105.866 79.1296 105.988 79.2722 106.061 79.4289C106.159 79.6391 106.164 79.8599 106.073 80.0427C105.982 80.2254 105.803 80.3552 105.576 80.4034Z" fill="white"/>
</g>
<path d="M114.942 113.213L113.358 113.55L109.659 105.809L115.023 104.669L115.613 105.903L111.833 106.706L112.795 108.72L116.364 107.962L116.953 109.196L113.385 109.954L114.942 113.213ZM124.053 111.468C123.442 111.598 122.831 111.616 122.218 111.524C121.605 111.432 121.02 111.246 120.464 110.966C119.913 110.678 119.414 110.311 118.968 109.865C118.53 109.417 118.171 108.901 117.892 108.317C117.616 107.739 117.463 107.183 117.432 106.649C117.408 106.114 117.498 105.625 117.701 105.185C117.909 104.735 118.223 104.354 118.643 104.042C119.062 103.73 119.578 103.51 120.188 103.38C120.798 103.25 121.41 103.231 122.023 103.324C122.636 103.416 123.218 103.606 123.77 103.895C124.326 104.174 124.823 104.538 125.261 104.985C125.706 105.431 126.067 105.943 126.343 106.52C126.623 107.105 126.774 107.665 126.797 108.201C126.828 108.735 126.74 109.227 126.533 109.676C126.329 110.117 126.018 110.494 125.598 110.805C125.178 111.117 124.663 111.338 124.053 111.468ZM123.432 110.169C123.94 110.06 124.331 109.85 124.604 109.538C124.874 109.218 125.016 108.83 125.031 108.374C125.05 107.908 124.932 107.409 124.677 106.875C124.421 106.34 124.086 105.891 123.67 105.526C123.262 105.159 122.811 104.901 122.318 104.752C121.82 104.595 121.317 104.571 120.809 104.679C120.308 104.786 119.923 104.999 119.653 105.318C119.38 105.631 119.232 106.016 119.21 106.474C119.187 106.932 119.304 107.428 119.559 107.962C119.814 108.496 120.151 108.95 120.57 109.322C120.986 109.687 121.443 109.947 121.94 110.104C122.434 110.254 122.931 110.275 123.432 110.169ZM131.46 109.703L129.875 110.039L126.176 102.298L129.404 101.612C129.968 101.492 130.509 101.488 131.028 101.6C131.551 101.704 132.015 101.907 132.419 102.211C132.83 102.513 133.148 102.899 133.373 103.368C133.628 103.902 133.692 104.398 133.565 104.854C133.443 105.301 133.159 105.664 132.714 105.941L136.766 108.575L134.841 108.984L131.102 106.463L130.022 106.693L131.46 109.703ZM129.994 102.846L128.351 103.195L129.432 105.458L131.075 105.109C131.459 105.027 131.712 104.862 131.834 104.614C131.965 104.363 131.945 104.061 131.776 103.708C131.611 103.361 131.366 103.111 131.043 102.957C130.727 102.801 130.377 102.764 129.994 102.846ZM143.75 107.09L138.163 108.278L134.464 100.536L140.051 99.3486L140.641 100.583L136.638 101.434L137.58 103.404L141.371 102.598L141.961 103.833L138.17 104.639L139.158 106.707L143.16 105.856L143.75 107.09ZM150.213 103.236L151.712 103.99C151.569 104.522 151.275 104.978 150.827 105.359C150.377 105.733 149.831 105.989 149.189 106.125C148.587 106.253 147.984 106.274 147.383 106.187C146.778 106.093 146.201 105.905 145.653 105.624C145.101 105.336 144.603 104.969 144.157 104.523C143.715 104.068 143.355 103.548 143.076 102.964C142.796 102.379 142.641 101.82 142.61 101.286C142.587 100.75 142.677 100.262 142.88 99.8208C143.087 99.3711 143.399 98.9948 143.814 98.6918C144.234 98.3799 144.753 98.1583 145.371 98.0269C146.013 97.8905 146.668 97.8904 147.337 98.0266C148.009 98.1539 148.642 98.4131 149.234 98.8041L148.667 99.9981C148.244 99.6904 147.798 99.4791 147.329 99.364C146.865 99.2401 146.414 99.2247 145.975 99.3178C145.482 99.4226 145.101 99.6349 144.831 99.9546C144.558 100.267 144.411 100.652 144.388 101.11C144.366 101.568 144.484 102.068 144.742 102.609C145.001 103.151 145.34 103.607 145.759 103.98C146.175 104.344 146.631 104.605 147.129 104.762C147.622 104.911 148.116 104.934 148.609 104.829C149.047 104.736 149.406 104.548 149.685 104.266C149.964 103.984 150.14 103.641 150.213 103.236ZM160.894 103.446L159.18 103.81L157.722 102.248L154.353 102.964L154.508 104.803L152.865 105.153L152.3 96.745L154.061 96.3708L160.894 103.446ZM154.233 101.63L156.663 101.113L153.926 98.2003L154.233 101.63ZM164.72 102.633L163.148 102.967L160.048 96.4815L157.595 97.003L156.995 95.747L163.474 94.3698L164.075 95.6258L161.621 96.1472L164.72 102.633Z" fill="white"/>
<rect width="133" height="127.109" rx="20" transform="matrix(0.978148 -0.207912 0.431141 0.902284 30 27.7921)" stroke="url(#paint1_linear_1_342)" stroke-width="3" shape-rendering="crispEdges"/>
</g>
<defs>
<filter id="filter0_dd_1_342" x="-5" y="0.139832" width="224.895" height="182.341" filterUnits="userSpaceOnUse" color-interpolation-filters="sRGB">
<feFlood flood-opacity="0" result="BackgroundImageFix"/>
<feColorMatrix in="SourceAlpha" type="matrix" values="0 0 0 0 0 0 0 0 0 0 0 0 0 0 0 0 0 0 127 0" result="hardAlpha"/>
<feOffset dx="-3" dy="5"/>
<feComposite in2="hardAlpha" operator="out"/>
<feColorMatrix type="matrix" values="0 0 0 0 0.160784 0 0 0 0 0.576471 0 0 0 0 0.729412 0 0 0 1 0"/>
<feBlend mode="normal" in2="BackgroundImageFix" result="effect1_dropShadow_1_342"/>
<feColorMatrix in="SourceAlpha" type="matrix" values="0 0 0 0 0 0 0 0 0 0 0 0 0 0 0 0 0 0 127 0" result="hardAlpha"/>
<feOffset dx="-15" dy="20"/>
<feGaussianBlur stdDeviation="10"/>
<feComposite in2="hardAlpha" operator="out"/>
<feColorMatrix type="matrix" values="0 0 0 0 0 0 0 0 0 0.180392 0 0 0 0 0.45098 0 0 0 0.12 0"/>
<feBlend mode="normal" in2="effect1_dropShadow_1_342" result="effect2_dropShadow_1_342"/>
<feBlend mode="normal" in="SourceGraphic" in2="effect2_dropShadow_1_342" result="shape"/>
</filter>
<linearGradient id="paint0_linear_1_342" x1="66.5" y1="0" x2="66.5" y2="127.109" gradientUnits="userSpaceOnUse">
<stop stop-color="#24B6B6"/>
<stop offset="1" stop-color="#248AB6"/>
</linearGradient>
<linearGradient id="paint1_linear_1_342" x1="66.5" y1="0" x2="66.5" y2="127.109" gradientUnits="userSpaceOnUse">
<stop stop-color="#2DBDBE"/>
<stop offset="1" stop-color="#1880A9"/>
</linearGradient>
<clipPath id="clip0_1_342">
<rect width="56" height="56" fill="white" transform="matrix(0.978148 -0.207912 0.423725 0.905791 76.2546 37.8389)"/>
</clipPath>
</defs>
</svg>
