<svg width="215" height="182" viewBox="0 0 215 182" fill="none" xmlns="http://www.w3.org/2000/svg">
<g filter="url(#filter0_dd_1_397)">
<rect width="133" height="128.891" rx="20" transform="matrix(0.978148 0.207912 -0.423725 0.905791 54.6147 0)" fill="url(#paint0_linear_1_397)" shape-rendering="crispEdges"/>
<g clip-path="url(#clip0_1_397)">
<path d="M116.929 77.6764L119.639 72.0047C121.095 68.9572 119.592 65.9068 116.289 65.2047L107.001 63.2305C108.045 62.0984 108.942 60.8496 109.616 59.438C110.291 58.0264 110.643 56.6619 110.773 55.3355L120.061 57.3097C123.364 58.0118 127.237 56.1042 128.693 53.0567L131.403 47.385C132.553 47.2693 133.686 46.5535 134.177 45.5256C134.801 44.2197 134.157 42.9122 132.742 42.6113C131.326 42.3104 129.666 43.1282 129.042 44.434C128.551 45.462 128.854 46.483 129.692 47.0211L126.981 52.6929C125.941 54.8695 123.175 56.2323 120.816 55.7307L110.823 53.6068C110.695 50.9617 109.712 48.4864 108.499 46.1552L117.843 48.1413C120.202 48.6429 122.968 47.2801 124.008 45.1034L125.964 41.0107C127.114 40.895 128.247 40.1792 128.738 39.1513C129.362 37.8454 128.718 36.5379 127.302 36.237C125.887 35.9361 124.227 36.7539 123.603 38.0597C123.112 39.0877 123.415 40.1087 124.252 40.6468L122.297 44.7396C121.673 46.0454 120.013 46.8632 118.597 46.5623L107.471 44.1973L107.449 44.2431C107.363 44.0935 107.278 43.9433 107.191 43.7953C112.498 41.467 117.404 39.1938 119.222 35.3892L119.599 34.5997L117.887 34.2359L117.51 35.0254C117.254 35.5614 116.9 36.0646 116.479 36.5456L103.338 33.7523C103.412 33.1975 103.56 32.6507 103.816 32.1146L104.193 31.3251L102.482 30.9612L102.104 31.7507C100.286 35.5553 102.316 39.3029 104.624 43.2495C104.425 43.3369 104.225 43.4266 104.025 43.5154L104.047 43.4696L92.9208 41.1046C91.5051 40.8037 90.8609 39.4962 91.4849 38.1904L93.4405 34.0976C94.5904 33.982 95.7234 33.2661 96.2146 32.2382C96.8386 30.9324 96.1944 29.6248 94.7787 29.3239C93.3631 29.023 91.7033 29.8408 91.0793 31.1467C90.5882 32.1746 90.8913 33.1957 91.7288 33.7337L89.7731 37.8265C88.733 40.0032 89.8066 42.1821 92.1663 42.6836L101.51 44.6697C98.4974 46.1027 95.5492 47.7424 93.1487 49.8499L83.1571 47.7261C80.7975 47.2246 79.7239 45.0457 80.764 42.869L83.4741 37.1973C84.624 37.0816 85.757 36.3658 86.2482 35.3379C86.8722 34.0321 86.2279 32.7245 84.8123 32.4236C83.3967 32.1227 81.7369 32.9405 81.1129 34.2464C80.6218 35.2743 80.9249 36.2954 81.7624 36.8334L79.0522 42.5052C77.596 45.5527 79.0998 48.6031 82.4026 49.3051L91.6906 51.2794C90.6462 52.4115 89.7497 53.6602 89.0752 55.0719C88.4007 56.4835 88.0485 57.848 87.9181 59.1744L78.6301 57.2001C75.3273 56.4981 71.4544 58.4057 69.9983 61.4532L67.2881 67.1249C66.1382 67.2406 65.0052 67.9564 64.514 68.9843C63.89 70.2901 64.5343 71.5977 65.9499 71.8986C67.3655 72.1995 69.0253 71.3817 69.6493 70.0758C70.1405 69.0479 69.8374 68.0268 68.9999 67.4888L71.71 61.817C72.7501 59.6404 75.516 58.2776 77.8756 58.7791L87.868 60.9031C87.9967 63.5482 88.9795 66.0235 90.1933 68.3548L80.8488 66.3686C78.4892 65.867 75.7232 67.2298 74.6832 69.4065L72.7275 73.4992C71.5777 73.6149 70.4446 74.3307 69.9534 75.3586C69.3295 76.6644 69.9737 77.972 71.3893 78.2729C72.8049 78.5738 74.4647 77.756 75.0887 76.4501C75.5799 75.4222 75.2768 74.4011 74.4393 73.8631L76.3949 69.7703C77.0189 68.4645 78.6787 67.6467 80.0943 67.9476L91.2207 70.3126L91.2426 70.2668C91.3286 70.4164 91.4133 70.5666 91.5 70.7146C86.1939 73.0429 81.2874 75.3161 79.4695 79.1207L79.0922 79.9102L80.804 80.274L81.1812 79.4845C81.4374 78.9485 81.791 78.4453 82.2122 77.9643L84.5034 78.4513L85.2579 76.8723L83.743 76.5503C84.3375 76.0914 84.9979 75.6525 85.7145 75.23L94.8682 77.1757C95.087 77.797 95.244 78.4096 95.3307 79.0133L86.9696 77.2361L86.2151 78.8151L95.3534 80.7575C95.2796 81.3124 95.1315 81.8592 94.8753 82.3953L94.4981 83.1848L96.2098 83.5486L96.5871 82.7591C98.405 78.9545 96.3755 75.207 94.0677 71.2604C94.266 71.1729 94.4662 71.0833 94.6661 70.9945L94.6443 71.0403L105.771 73.4053C107.186 73.7062 107.831 75.0137 107.207 76.3195L105.251 80.4123C104.101 80.5279 102.968 81.2437 102.477 82.2717C101.853 83.5775 102.497 84.885 103.913 85.1859C105.328 85.4868 106.988 84.669 107.612 83.3632C108.103 82.3353 107.8 81.3142 106.963 80.7761L108.918 76.6834C109.958 74.5067 108.885 72.3278 106.525 71.8263L97.1816 69.8402C100.194 68.4072 103.142 66.7675 105.542 64.6598L115.534 66.7837C117.894 67.2853 118.968 69.4642 117.927 71.6408L115.217 77.3126C114.067 77.4282 112.934 78.1441 112.443 79.172C111.819 80.4778 112.464 81.7854 113.879 82.0863C115.295 82.3872 116.955 81.5694 117.579 80.2635C118.07 79.2356 117.767 78.2145 116.929 77.6764ZM131.987 44.1903C132.46 44.2907 132.674 44.7267 132.466 45.1617C132.258 45.5967 131.705 45.8697 131.233 45.7693C130.76 45.6689 130.546 45.2329 130.754 44.7979C130.962 44.3629 131.515 44.0899 131.987 44.1903ZM126.548 37.816C127.02 37.9164 127.234 38.3524 127.026 38.7874C126.818 39.2224 126.266 39.4954 125.793 39.395C125.321 39.2946 125.107 38.8586 125.315 38.4236C125.522 37.9886 126.075 37.7156 126.548 37.816ZM94.0242 30.9029C94.4967 31.0034 94.7107 31.4393 94.5029 31.8744C94.295 32.3094 93.7422 32.5824 93.2697 32.4819C92.7973 32.3815 92.5832 31.9455 92.7911 31.5105C92.999 31.0755 93.5518 30.8025 94.0242 30.9029ZM84.0578 34.0026C84.5303 34.1031 84.7443 34.539 84.5365 34.9741C84.3286 35.4091 83.7758 35.682 83.3033 35.5816C82.8309 35.4812 82.6168 35.0452 82.8247 34.6102C83.0326 34.1752 83.5854 33.9022 84.0578 34.0026ZM66.7044 70.3196C66.232 70.2192 66.0179 69.7832 66.2258 69.3482C66.4336 68.9131 66.9864 68.6402 67.4589 68.7406C67.9313 68.841 68.1454 69.277 67.9375 69.712C67.7297 70.147 67.1768 70.42 66.7044 70.3196ZM72.1438 76.6939C71.6714 76.5935 71.4573 76.1575 71.6652 75.7225C71.8731 75.2874 72.4259 75.0145 72.8983 75.1149C73.3708 75.2153 73.5848 75.6513 73.3769 76.0863C73.1691 76.5213 72.6163 76.7943 72.1438 76.6939ZM104.667 83.6069C104.195 83.5065 103.981 83.0705 104.189 82.6355C104.396 82.2005 104.949 81.9275 105.422 82.0279C105.894 82.1284 106.108 82.5644 105.9 82.9994C105.692 83.4344 105.14 83.7074 104.667 83.6069ZM90.7728 64.9993C90.5267 64.3817 90.3158 63.7576 90.1468 63.1268L101.754 65.594C101.069 66.0433 100.356 66.4709 99.6192 66.8796L90.7728 64.9993ZM97.2436 68.114C95.9502 68.7453 94.6214 69.3439 93.2894 69.9296C92.7115 68.937 92.1466 67.9369 91.6393 66.9228L97.2436 68.114ZM89.7938 61.3124C89.7258 60.7344 89.6968 60.1499 89.7241 59.5582L105.195 62.8467C104.704 63.3397 104.173 63.8053 103.616 64.2505L89.7938 61.3124ZM96.9372 48.9158C97.6224 48.4666 98.3358 48.039 99.0723 47.6303L107.92 49.5108C108.166 50.1284 108.376 50.7525 108.546 51.3833L107.02 51.0591L106.266 52.6381L108.898 53.1975C108.966 53.7755 108.995 54.36 108.967 54.9517L93.4965 51.6632C93.9876 51.1701 94.5184 50.7046 95.0752 50.2594L104.554 52.2742L105.309 50.6952L96.9372 48.9158ZM101.448 46.3958C102.741 45.7646 104.07 45.166 105.402 44.5803C105.98 45.5728 106.545 46.573 107.052 47.5871L101.448 46.3958ZM92.22 53.1313L108.735 56.6416C108.618 57.1803 108.456 57.7243 108.241 58.2759L91.2053 54.6549C91.5081 54.1218 91.848 53.6157 92.22 53.1313ZM90.4508 56.2339L107.485 59.8548C107.183 60.3879 106.843 60.894 106.471 61.3784L89.9565 57.8682C90.0734 57.3295 90.2353 56.7856 90.4508 56.2339ZM114.948 37.9596C114.354 38.4185 113.694 38.8574 112.977 39.2799L103.822 37.334C103.604 36.7127 103.447 36.1001 103.36 35.4964L114.948 37.9596ZM104.638 39.2469L110.651 40.5249C109.316 41.1831 107.88 41.8206 106.413 42.4635C105.775 41.373 105.156 40.2987 104.638 39.2469ZM94.053 75.263L88.0404 73.985C89.375 73.3268 90.811 72.6893 92.2788 72.0464C92.9165 73.1368 93.5355 74.2111 94.053 75.263ZM114.634 80.5073C114.161 80.4068 113.947 79.9708 114.155 79.5358C114.363 79.1008 114.916 78.8278 115.388 78.9283C115.861 79.0287 116.075 79.4647 115.867 79.8997C115.659 80.3347 115.106 80.6077 114.634 80.5073Z" fill="white"/>
</g>
<path d="M29.4794 100.11L27.8948 99.7732L31.5303 92.0015L33.1149 92.3383L31.6404 95.4904L35.2673 96.2614L36.7419 93.1092L38.3265 93.446L34.6909 101.218L33.1063 100.881L34.6826 97.5114L31.0556 96.7404L29.4794 100.11ZM44.1262 103.223L42.4125 102.859L42.5652 101.015L39.1964 100.299L37.7408 101.866L36.0975 101.517L42.8671 94.4112L44.6278 94.7854L44.1262 103.223ZM40.2456 99.1599L42.6753 99.6763L42.9444 96.2321L40.2456 99.1599ZM47.1204 103.86L45.5358 103.523L49.1714 95.7512L50.756 96.088L47.1204 103.86ZM54.5678 105.443L49.2153 104.305L52.8509 96.5333L54.4355 96.8701L51.3948 103.37L55.1627 104.171L54.5678 105.443ZM59.2532 106.63C58.6429 106.5 58.1269 106.279 57.7053 105.966C57.2838 105.654 56.9661 105.275 56.7521 104.831C56.5494 104.382 56.4576 103.889 56.4769 103.351C56.5039 102.815 56.6547 102.253 56.9293 101.666C57.2005 101.087 57.5531 100.572 57.987 100.123C58.4288 99.6748 58.9222 99.3096 59.4673 99.0271C60.0237 98.7391 60.6075 98.5485 61.2189 98.4554C61.8303 98.3623 62.4411 98.3806 63.0515 98.5103C63.6619 98.64 64.1778 98.8612 64.5994 99.1739C65.0209 99.4866 65.333 99.8676 65.5358 100.317C65.7497 100.761 65.8432 101.251 65.8161 101.787C65.7969 102.324 65.6517 102.883 65.3805 103.463C65.1059 104.05 64.7477 104.567 64.306 105.015C63.872 105.464 63.3769 105.833 62.8205 106.121C62.2754 106.404 61.6972 106.592 61.0858 106.685C60.4744 106.778 59.8636 106.76 59.2532 106.63ZM59.8634 105.325C60.372 105.434 60.8723 105.412 61.3642 105.262C61.8595 105.104 62.3094 104.842 62.7139 104.473C63.1296 104.1 63.4629 103.645 63.7137 103.109C63.9646 102.572 64.0771 102.074 64.0512 101.615C64.0331 101.157 63.8866 100.771 63.6116 100.458C63.3401 100.137 62.95 99.9228 62.4413 99.8146C61.9405 99.7082 61.4425 99.7338 60.9472 99.8914C60.4553 100.042 60.0031 100.3 59.5908 100.667C59.1785 101.033 58.8469 101.484 58.5961 102.021C58.3452 102.557 58.231 103.058 58.2535 103.525C58.2794 103.985 58.4282 104.375 58.6997 104.696C58.9747 105.009 59.3626 105.219 59.8634 105.325ZM71.2336 108.985L69.6607 108.651L72.7064 102.14L70.2532 101.619L70.8431 100.358L77.3223 101.735L76.7325 102.996L74.2793 102.474L71.2336 108.985ZM78.4876 110.718C77.8772 110.588 77.3613 110.367 76.9397 110.055C76.5182 109.742 76.2004 109.364 75.9865 108.92C75.7837 108.47 75.692 107.977 75.7112 107.439C75.7383 106.903 75.8891 106.342 76.1637 105.755C76.4348 105.175 76.7874 104.661 77.2214 104.211C77.6632 103.763 78.1566 103.398 78.7017 103.116C79.258 102.827 79.8419 102.637 80.4532 102.544C81.0646 102.451 81.6755 102.469 82.2858 102.599C82.8962 102.728 83.4122 102.95 83.8337 103.262C84.2553 103.575 84.5674 103.956 84.7701 104.405C84.9841 104.849 85.0775 105.339 85.0505 105.875C85.0312 106.413 84.886 106.971 84.6148 107.551C84.3403 108.138 83.9821 108.656 83.5403 109.103C83.1063 109.553 82.6112 109.922 82.0549 110.21C81.5098 110.492 80.9316 110.68 80.3202 110.773C79.7088 110.866 79.0979 110.848 78.4876 110.718ZM79.0977 109.414C79.6064 109.522 80.1066 109.501 80.5986 109.35C81.0938 109.193 81.5437 108.93 81.9482 108.562C82.364 108.188 82.6972 107.733 82.9481 107.197C83.1989 106.661 83.3114 106.163 83.2855 105.703C83.2675 105.245 83.121 104.86 82.846 104.546C82.5744 104.226 82.1843 104.011 81.6757 103.903C81.1749 103.797 80.6768 103.822 80.1815 103.98C79.6896 104.13 79.2375 104.389 78.8252 104.755C78.4128 105.122 78.0813 105.573 77.8304 106.109C77.5796 106.645 77.4654 107.147 77.4879 107.614C77.5138 108.073 77.6625 108.463 77.9341 108.784C78.209 109.097 78.5969 109.307 79.0977 109.414ZM85.0285 111.917L83.1739 111.523L87.9595 108.107L87.0794 103.809L88.9457 104.205L89.4384 107.346L92.4788 104.956L94.3099 105.346L89.9616 108.544L90.9443 113.175L89.0897 112.781L88.4726 109.327L85.0285 111.917ZM93.8996 113.803L92.315 113.466L95.9505 105.694L97.5351 106.031L93.8996 113.803ZM103.003 113.252L103.578 114.45C103.005 114.83 102.372 115.09 101.678 115.229C100.988 115.361 100.323 115.359 99.6809 115.223C99.0784 115.095 98.5686 114.879 98.1515 114.575C97.7377 114.264 97.4278 113.888 97.2217 113.445C97.019 112.996 96.9272 112.503 96.9465 111.965C96.9769 111.422 97.1294 110.857 97.404 110.27C97.6785 109.683 98.0328 109.164 98.4668 108.715C98.9086 108.267 99.402 107.902 99.9471 107.619C100.503 107.331 101.082 107.144 101.682 107.056C102.293 106.963 102.908 106.982 103.526 107.113C104.168 107.25 104.703 107.503 105.132 107.873C105.573 108.238 105.867 108.694 106.014 109.244L104.523 110.002C104.443 109.587 104.26 109.241 103.976 108.966C103.703 108.685 103.348 108.498 102.909 108.404C102.416 108.3 101.922 108.326 101.427 108.484C100.935 108.634 100.483 108.892 100.071 109.259C99.6583 109.625 99.325 110.08 99.0707 110.624C98.8165 111.167 98.7006 111.673 98.7231 112.139C98.749 112.599 98.8977 112.989 99.1693 113.31C99.4443 113.623 99.8282 113.832 100.321 113.937C100.759 114.03 101.214 114.015 101.684 113.892C102.155 113.769 102.594 113.556 103.003 113.252ZM106.084 116.393L104.5 116.056L108.135 108.284L109.72 108.621L106.084 116.393ZM111.536 117.552L109.963 117.217L113.009 110.707L110.556 110.185L111.146 108.924L117.625 110.301L117.035 111.562L114.582 111.041L111.536 117.552ZM119.344 119.211L117.76 118.875L119.239 115.712L118.379 110.462L120.245 110.858L120.663 114.628L124.224 111.704L125.997 112.081L120.819 116.059L119.344 119.211Z" fill="white"/>
<rect width="133" height="128.891" rx="20" transform="matrix(0.978148 0.207912 -0.423725 0.905791 54.6147 0)" stroke="url(#paint1_linear_1_397)" stroke-width="3" shape-rendering="crispEdges"/>
</g>
<defs>
<filter id="filter0_dd_1_397" x="-4.99988" y="0" width="224.708" height="184.401" filterUnits="userSpaceOnUse" color-interpolation-filters="sRGB">
<feFlood flood-opacity="0" result="BackgroundImageFix"/>
<feColorMatrix in="SourceAlpha" type="matrix" values="0 0 0 0 0 0 0 0 0 0 0 0 0 0 0 0 0 0 127 0" result="hardAlpha"/>
<feOffset dx="3" dy="5"/>
<feComposite in2="hardAlpha" operator="out"/>
<feColorMatrix type="matrix" values="0 0 0 0 0.52549 0 0 0 0 0.411765 0 0 0 0 0.878431 0 0 0 1 0"/>
<feBlend mode="normal" in2="BackgroundImageFix" result="effect1_dropShadow_1_397"/>
<feColorMatrix in="SourceAlpha" type="matrix" values="0 0 0 0 0 0 0 0 0 0 0 0 0 0 0 0 0 0 127 0" result="hardAlpha"/>
<feOffset dx="15" dy="20"/>
<feGaussianBlur stdDeviation="10"/>
<feComposite in2="hardAlpha" operator="out"/>
<feColorMatrix type="matrix" values="0 0 0 0 0 0 0 0 0 0 0 0 0 0 0 0 0 0 0.12 0"/>
<feBlend mode="normal" in2="effect1_dropShadow_1_397" result="effect2_dropShadow_1_397"/>
<feBlend mode="normal" in="SourceGraphic" in2="effect2_dropShadow_1_397" result="shape"/>
</filter>
<linearGradient id="paint0_linear_1_397" x1="66.5" y1="0" x2="66.5" y2="128.891" gradientUnits="userSpaceOnUse">
<stop stop-color="#9A68E0"/>
<stop offset="1" stop-color="#7968E0"/>
</linearGradient>
<linearGradient id="paint1_linear_1_397" x1="66.5" y1="0" x2="66.5" y2="128.891" gradientUnits="userSpaceOnUse">
<stop stop-color="#AC7CF3"/>
<stop offset="1" stop-color="#705FD6"/>
</linearGradient>
<clipPath id="clip0_1_397">
<rect width="56" height="56" fill="white" transform="matrix(0.978148 0.207912 -0.431141 0.902285 84.0295 26.1694)"/>
</clipPath>
</defs>
</svg>
