<svg width="215" height="185" viewBox="0 0 215 185" fill="none" xmlns="http://www.w3.org/2000/svg">
<g filter="url(#filter0_dd_1_303)">
<rect width="132" height="132.891" rx="20" transform="matrix(0.978148 0.207912 -0.423725 0.905791 56.3096 0)" fill="url(#paint0_linear_1_303)" shape-rendering="crispEdges"/>
<g clip-path="url(#clip0_1_303)">
<path d="M74.7922 80.7605L73.0864 80.3841L73.2417 80.077C73.9592 78.678 75.6403 75.4044 72.6762 71.3121L71.0539 69.074C69.3586 66.7343 69.047 64.1129 70.1795 61.6915C71.3006 59.292 73.7611 57.2642 77.1057 55.9827L82.1952 54.0328C84.9447 52.9787 86.9537 51.3629 87.852 49.4831C88.7502 47.6033 88.5131 45.5109 87.1851 43.5901L85.1582 40.6598C81.9532 36.0258 84.1507 32.2141 84.871 30.9652C84.9282 30.8652 84.9755 30.784 85.0086 30.7206L86.7 31.127C86.6589 31.2131 86.5937 31.3219 86.5177 31.4553C85.8474 32.6173 84.0757 35.6899 86.8118 39.6476L88.8388 42.5779C90.4409 44.8918 90.6982 47.4747 89.5646 49.8471C88.4309 52.2196 85.9803 54.2268 82.6658 55.4965L77.5759 57.4472C74.8051 58.5106 72.7867 60.1419 71.8989 62.0413C71.0006 63.9628 71.2826 66.0935 72.6939 68.0372L74.3157 70.2744C77.7456 75.004 75.7015 78.9857 74.933 80.4835L74.7922 80.7605Z" fill="white"/>
<path d="M62.3012 78.1039L62.5161 77.6365C63.4861 75.4998 64.9521 72.27 71.8165 69.7468L75.0791 68.5522C77.9179 67.5084 79.9964 65.8795 80.93 63.9689C81.8534 62.078 81.6246 59.9682 80.2846 58.031L77.8257 54.4757C76.224 52.1611 75.9666 49.5782 77.1011 47.2059C78.2356 44.8337 80.6845 42.826 83.9986 41.5571L88.1962 39.9447C94.0023 37.7183 95.1806 34.5344 95.6247 33.3364L95.7212 33.0812L97.4828 33.3409L97.4016 33.5541C96.921 34.8539 95.457 38.8076 88.6694 41.4089L84.4718 43.0135C81.7227 44.0668 79.7145 45.6829 78.8163 47.5627C77.918 49.4425 78.1539 51.5355 79.4819 53.4562L81.9412 57.0107C83.559 59.347 83.8048 61.9501 82.6384 64.3399C81.4605 66.7516 78.9327 68.7703 75.5197 70.0234L72.2549 71.2228C66.3175 73.4082 65.1653 75.9358 64.2424 77.9678L64.0175 78.4583L62.3012 78.1039Z" fill="white"/>
<path d="M94.7169 36.1881L84.8032 34.0809L84.0487 35.6599L93.9624 37.7671L94.7169 36.1881Z" fill="white"/>
<path d="M90.8167 38.9988L85.5813 37.886L84.8268 39.465L90.0622 40.5778L90.8167 38.9988Z" fill="white"/>
<path d="M88.2498 42.0938L84.6885 41.3368L83.934 42.9158L87.4953 43.6728L88.2498 42.0938Z" fill="white"/>
<path d="M89.7024 46.0422L80.292 44.042L79.5375 45.621L88.9479 47.6212L89.7024 46.0422Z" fill="white"/>
<path d="M88.8099 49.4929L78.084 47.213L77.3295 48.792L88.0554 51.0719L88.8099 49.4929Z" fill="white"/>
<path d="M85.7557 52.4834L77.9236 50.8186L77.1691 52.3976L85.0012 54.0624L85.7557 52.4834Z" fill="white"/>
<path d="M82.6049 59.0947L74.7556 57.4263L74.0011 59.0053L81.8504 60.6737L82.6049 59.0947Z" fill="white"/>
<path d="M82.4427 62.6999L71.7622 60.4297L71.0077 62.0087L81.6882 64.2789L82.4427 62.6999Z" fill="white"/>
<path d="M80.2218 65.8681L70.8242 63.8706L70.0697 65.4496L79.4673 67.4471L80.2218 65.8681Z" fill="white"/>
<path d="M75.6575 68.5377L72.3503 67.8347L71.5958 69.4137L74.903 70.1167L75.6575 68.5377Z" fill="white"/>
<path d="M75.0385 72.0466L69.6379 70.8987L68.8834 72.4777L74.284 73.6256L75.0385 72.0466Z" fill="white"/>
<path d="M75.6517 75.8167L65.7903 73.7206L65.0358 75.2996L74.8972 77.3957L75.6517 75.8167Z" fill="white"/>
<path d="M108.759 67.086L106.551 71.5122L108.249 71.9037L110.458 67.4776L108.759 67.086Z" fill="white"/>
<path d="M102.558 81.4784C102.403 81.4453 102.269 81.3739 102.171 81.2718L99.1372 78.1013C99.0424 78.0025 98.9847 77.8785 98.9697 77.7418C98.9548 77.605 98.9832 77.4603 99.0521 77.3223L101.261 72.8972C101.33 72.7592 101.437 72.6327 101.571 72.5304C101.705 72.428 101.861 72.3535 102.025 72.3142L107.269 71.0555C107.432 71.0163 107.597 71.0138 107.746 71.0482C107.895 71.0826 108.023 71.1528 108.118 71.2516L111.154 74.4189C111.248 74.5177 111.306 74.6417 111.321 74.7785C111.336 74.9152 111.307 75.0599 111.239 75.198L109.029 79.6239C108.961 79.7619 108.854 79.8884 108.72 79.9907C108.585 80.093 108.429 80.1675 108.265 80.2068L103.021 81.4656C102.863 81.504 102.704 81.5084 102.558 81.4784ZM100.975 77.2632L103.389 79.7816L107.556 78.7811L109.312 75.2624L106.897 72.7489L102.729 73.7493L100.975 77.2632Z" fill="white"/>
<path d="M110.451 83.1811L107.415 80.0138C107.32 79.915 107.262 79.791 107.248 79.6542C107.233 79.5175 107.261 79.3728 107.33 79.2347L109.539 74.8088C109.608 74.6707 109.715 74.544 109.849 74.4415C109.983 74.3391 110.14 74.2644 110.304 74.2251L115.547 72.9672L115.717 74.5253L111.011 75.654L109.256 79.1727L111.981 82.0131L110.451 83.1811Z" fill="white"/>
<path d="M94.2651 79.5662C94.1095 79.5332 93.9755 79.4617 93.8775 79.3594L90.8427 76.1922C90.748 76.0935 90.6902 75.9695 90.6753 75.8327C90.6604 75.696 90.6888 75.5513 90.7577 75.4132L92.9665 70.9881C93.0354 70.8501 93.1424 70.7235 93.2767 70.6212C93.411 70.5189 93.5678 70.4445 93.7314 70.4054L98.9753 69.1466C99.1388 69.1074 99.3034 69.1049 99.4524 69.1393C99.6015 69.1738 99.7297 69.2439 99.8243 69.3427L102.86 72.5101C102.955 72.6088 103.012 72.7328 103.027 72.8696C103.042 73.0064 103.014 73.151 102.945 73.2891L100.736 77.715C100.667 77.853 100.56 77.9795 100.426 78.0818C100.292 78.1841 100.135 78.2587 99.9717 78.2979L94.7265 79.5555C94.5688 79.5933 94.4101 79.5969 94.2651 79.5662ZM92.6825 75.351L95.0949 77.8692L99.2647 76.8692L101.02 73.3504L98.6051 70.8369L94.4369 71.8372L92.6825 75.351Z" fill="white"/>
<path d="M92.4419 75.8015L90.7433 75.4101L92.7253 71.4377L90.0002 68.5973L91.5288 67.4307L94.5652 70.5982C94.6598 70.697 94.7173 70.821 94.7321 70.9577C94.7469 71.0945 94.7183 71.2391 94.6494 71.377L92.4419 75.8015Z" fill="white"/>
<path d="M117.723 70.6834L116.952 72.2588L118.656 72.638L119.427 71.0627L117.723 70.6834Z" fill="white"/>
<path d="M120.254 71.2215L119.483 72.7969L121.187 73.1761L121.958 71.6008L120.254 71.2215Z" fill="white"/>
<path d="M107.503 62.4776L106.732 64.053L108.436 64.4322L109.207 62.8569L107.503 62.4776Z" fill="white"/>
<path d="M110.033 63.0156L109.262 64.5909L110.967 64.9702L111.738 63.3948L110.033 63.0156Z" fill="white"/>
<path d="M110.909 84.9437L110.138 86.519L111.842 86.8983L112.613 85.3229L110.909 84.9437Z" fill="white"/>
<path d="M113.44 85.4819L112.669 87.0573L114.373 87.4365L115.144 85.8611L113.44 85.4819Z" fill="white"/>
<path d="M90.5676 62.3559L89.7964 63.9313L91.5007 64.3105L92.2719 62.7352L90.5676 62.3559Z" fill="white"/>
<path d="M93.0991 62.8942L92.3279 64.4696L94.0322 64.8489L94.8034 63.2735L93.0991 62.8942Z" fill="white"/>
<path d="M107.028 47.6001C106.182 47.4202 105.465 47.0129 104.968 46.4295C104.472 45.8462 104.218 45.1131 104.239 44.3229C104.259 43.5328 104.554 42.721 105.085 41.9904C105.616 41.2597 106.36 40.643 107.222 40.2181C108.084 39.7933 109.026 39.5794 109.929 39.6035C110.832 39.6277 111.655 39.8887 112.294 40.3537C112.934 40.8187 113.36 41.4667 113.52 42.2158C113.68 42.965 113.567 43.7815 113.194 44.5623C112.692 45.6085 111.761 46.5159 110.606 47.0854C109.45 47.6549 108.163 47.84 107.028 47.6001ZM110.046 41.2841C109.538 41.1762 108.975 41.2096 108.429 41.3801C107.882 41.5506 107.376 41.8506 106.975 42.242C106.574 42.6335 106.296 43.0989 106.175 43.5794C106.055 44.0599 106.097 44.5339 106.298 44.9415C106.499 45.3491 106.849 45.6719 107.303 45.8692C107.758 46.0664 108.296 46.1292 108.851 46.0497C109.406 45.9702 109.952 45.7518 110.42 45.4223C110.889 45.0928 111.258 44.6669 111.482 44.1984C111.782 43.5702 111.799 42.9103 111.53 42.3638C111.261 41.8172 110.727 41.4289 110.046 41.2841Z" fill="white"/>
<path d="M116.848 56.6449C115.663 56.3931 114.66 55.8227 113.965 55.0061C113.27 54.1894 112.914 53.163 112.943 52.0568C112.972 50.9506 113.385 49.8142 114.128 48.7913C114.871 47.7684 115.913 46.9049 117.12 46.3101C118.327 45.7153 119.646 45.4159 120.91 45.4497C122.174 45.4835 123.326 45.849 124.221 46.5C125.116 47.1509 125.713 48.0582 125.937 49.1069C126.161 50.1557 126.002 51.2989 125.48 52.3919C124.778 53.8567 123.475 55.1271 121.857 55.9245C120.239 56.7218 118.437 56.9809 116.848 56.6449ZM121.375 47.1709C120.529 46.991 119.591 47.0467 118.68 47.3309C117.769 47.615 116.926 48.115 116.257 48.7674C115.588 49.4199 115.124 50.1956 114.924 50.9964C114.723 51.7973 114.794 52.5873 115.129 53.2665C115.464 53.9458 116.047 54.4839 116.804 54.8126C117.561 55.1414 118.459 55.2461 119.384 55.1135C120.309 54.981 121.219 54.6171 121.999 54.0679C122.78 53.5187 123.395 52.8088 123.768 52.028C124.267 50.9812 124.295 49.8819 123.846 48.9714C123.398 48.0608 122.509 47.4134 121.375 47.1709Z" fill="white"/>
<path d="M103.987 60.8688C103.226 60.7069 102.581 60.3403 102.134 59.8153C101.687 59.2903 101.458 58.6305 101.477 57.9193C101.496 57.2082 101.761 56.4777 102.239 55.8201C102.717 55.1625 103.386 54.6074 104.162 54.2251C104.938 53.8427 105.786 53.6502 106.599 53.6719C107.411 53.6936 108.152 53.9286 108.727 54.3471C109.303 54.7656 109.687 55.3488 109.831 56.023C109.975 56.6972 109.872 57.4321 109.537 58.1348C109.085 59.0764 108.248 59.8932 107.207 60.4057C106.167 60.9183 105.009 61.0848 103.987 60.8688ZM106.628 55.3424C106.205 55.2524 105.736 55.2802 105.281 55.4223C104.825 55.5644 104.403 55.8144 104.069 56.1406C103.735 56.4668 103.503 56.8547 103.403 57.2551C103.302 57.6555 103.338 58.0505 103.505 58.3902C103.673 58.7298 103.964 58.9988 104.343 59.1632C104.721 59.3276 105.17 59.3799 105.633 59.3137C106.095 59.2474 106.55 59.0654 106.94 58.7908C107.33 58.5162 107.638 58.1613 107.825 57.7709C108.075 57.2474 108.089 56.6975 107.865 56.242C107.641 55.7866 107.196 55.463 106.628 55.3424Z" fill="white"/>
<path d="M129.027 47.9278C128.266 47.7659 127.62 47.3992 127.174 46.8742C126.727 46.3492 126.498 45.6894 126.517 44.9783C126.536 44.2672 126.801 43.5366 127.279 42.879C127.757 42.2215 128.426 41.6664 129.202 41.284C129.978 40.9016 130.826 40.7092 131.639 40.7309C132.451 40.7526 133.192 40.9875 133.767 41.406C134.342 41.8245 134.726 42.4077 134.87 43.0819C135.014 43.7561 134.912 44.491 134.576 45.1937C134.125 46.1354 133.287 46.9521 132.247 47.4647C131.207 47.9773 130.049 48.1438 129.027 47.9278ZM131.668 42.4013C131.245 42.3114 130.776 42.3392 130.32 42.4813C129.865 42.6234 129.443 42.8733 129.109 43.1996C128.775 43.5258 128.543 43.9136 128.442 44.3141C128.342 44.7145 128.378 45.1095 128.545 45.4491C128.712 45.7888 129.004 46.0578 129.382 46.2222C129.761 46.3865 130.21 46.4389 130.672 46.3726C131.135 46.3063 131.59 46.1244 131.98 45.8498C132.37 45.5752 132.678 45.2202 132.865 44.8299C133.115 44.3064 133.129 43.7565 132.905 43.301C132.68 42.8456 132.235 42.5219 131.668 42.4013Z" fill="white"/>
<path d="M127.492 45.5609L124.082 47.4575L124.867 48.7743L128.277 46.8776L127.492 45.5609Z" fill="white"/>
<path d="M111.456 45.2756L110.383 46.7526L115.253 48.8663L116.326 47.3893L111.456 45.2756Z" fill="white"/>
<path d="M113.746 52.6129L108.447 55.2528L109.133 56.6218L114.433 53.9819L113.746 52.6129Z" fill="white"/>
</g>
<path d="M19.9678 98.7239L18.3832 98.3871L22.0188 90.6154L23.6034 90.9523L22.1288 94.1044L25.7558 94.8753L27.2303 91.7232L28.8149 92.06L25.1794 99.8317L23.5948 99.4949L25.171 96.1253L21.5441 95.3544L19.9678 98.7239ZM34.6146 101.837L32.9009 101.473L33.0536 99.6292L29.6849 98.9132L28.2293 100.48L26.586 100.131L33.3555 93.0251L35.1162 93.3994L34.6146 101.837ZM30.734 97.7738L33.1638 98.2903L33.4328 94.8461L30.734 97.7738ZM37.6088 102.474L36.0242 102.137L39.6598 94.3652L41.2444 94.702L37.6088 102.474ZM45.0562 104.057L39.7038 102.919L43.3393 95.1473L44.9239 95.4841L41.8833 101.984L45.6511 102.785L45.0562 104.057ZM49.7416 105.244C49.1313 105.114 48.6153 104.893 48.1938 104.58C47.7722 104.267 47.4545 103.889 47.2405 103.445C47.0378 102.996 46.9461 102.502 46.9653 101.965C46.9923 101.429 47.1431 100.867 47.4177 100.28C47.6889 99.7007 48.0415 99.1861 48.4754 98.7366C48.9172 98.2887 49.4107 97.9236 49.9558 97.6411C50.5121 97.353 51.0959 97.1625 51.7073 97.0693C52.3187 96.9762 52.9296 96.9945 53.5399 97.1243C54.1503 97.254 54.6662 97.4752 55.0878 97.7879C55.5093 98.1006 55.8215 98.4816 56.0242 98.931C56.2381 99.3748 56.3316 99.8647 56.3045 100.401C56.2853 100.938 56.1401 101.497 55.8689 102.077C55.5943 102.664 55.2362 103.181 54.7944 103.629C54.3604 104.078 53.8653 104.447 53.309 104.735C52.7639 105.018 52.1856 105.206 51.5743 105.299C50.9629 105.392 50.352 105.374 49.7416 105.244ZM50.3518 103.939C50.8604 104.048 51.3607 104.026 51.8526 103.876C52.3479 103.718 52.7978 103.456 53.2023 103.087C53.618 102.714 53.9513 102.259 54.2022 101.722C54.453 101.186 54.5655 100.688 54.5396 100.229C54.5215 99.7708 54.375 99.3851 54.1001 99.0717C53.8285 98.7511 53.4384 98.5367 52.9298 98.4286C52.4289 98.3221 51.9309 98.3477 51.4356 98.5054C50.9437 98.6557 50.4916 98.9142 50.0792 99.2806C49.6669 99.6471 49.3353 100.098 49.0845 100.635C48.8336 101.171 48.7195 101.672 48.742 102.139C48.7679 102.599 48.9166 102.989 49.1881 103.31C49.4631 103.623 49.851 103.833 50.3518 103.939ZM58.365 106.886L62.0005 99.1138L64.888 99.7276C65.741 99.9089 66.4064 100.234 66.8843 100.702C67.37 101.171 67.6517 101.737 67.7293 102.399C67.818 103.055 67.6861 103.76 67.3336 104.514C66.9777 105.275 66.4824 105.91 65.8479 106.421C65.2246 106.925 64.5141 107.276 63.7165 107.473C62.9268 107.672 62.1054 107.681 61.2525 107.499L58.365 106.886ZM60.5343 105.972L61.8372 106.249C62.3771 106.364 62.8897 106.353 63.3748 106.218C63.8678 106.083 64.3092 105.839 64.6991 105.483C65.0968 105.13 65.4194 104.688 65.6668 104.159C65.9143 103.63 66.0239 103.148 65.9957 102.712C65.9787 102.27 65.8254 101.899 65.5358 101.598C65.2541 101.299 64.8432 101.092 64.3033 100.978L63.0004 100.701L60.5343 105.972ZM74.0118 110.211L72.2981 109.847L72.4508 108.003L69.0821 107.287L67.6264 108.854L65.9832 108.505L72.7527 101.399L74.5134 101.774L74.0118 110.211ZM70.1312 106.148L72.5609 106.664L72.83 103.22L70.1312 106.148ZM75.0455 109.045L76.5478 108.289C76.6679 108.712 76.9074 109.074 77.2663 109.373C77.6253 109.673 78.0551 109.876 78.5559 109.982C79.0724 110.092 79.5251 110.081 79.914 109.948C80.3107 109.817 80.587 109.585 80.7429 109.252C80.8853 108.948 80.8524 108.678 80.6442 108.442C80.4394 108.2 80.0226 107.96 79.3937 107.722C78.4241 107.349 77.7776 106.929 77.4541 106.462C77.1306 105.995 77.1129 105.453 77.4011 104.837C77.6282 104.352 77.9578 103.96 78.39 103.661C78.8255 103.355 79.3238 103.155 79.8848 103.059C80.4571 102.957 81.0484 102.971 81.6588 103.101C82.3552 103.249 82.937 103.504 83.4042 103.866C83.8714 104.229 84.2046 104.666 84.4036 105.178L82.9417 105.931C82.7992 105.518 82.5708 105.179 82.2564 104.913C81.9533 104.642 81.5631 104.455 81.0858 104.354C80.6241 104.255 80.2061 104.266 79.8318 104.386C79.4654 104.507 79.2076 104.727 79.0584 105.046C78.9296 105.321 78.9648 105.568 79.1641 105.785C79.3668 105.996 79.777 106.222 80.3947 106.465C81.3844 106.851 82.0398 107.289 82.3609 107.78C82.6899 108.272 82.6984 108.851 82.3866 109.518C82.1629 109.996 81.8237 110.39 81.3691 110.7C80.9257 111.004 80.4062 111.204 79.8105 111.3C79.2226 111.399 78.5961 111.377 77.9309 111.236C77.211 111.083 76.6035 110.818 76.1084 110.442C75.6133 110.066 75.259 109.6 75.0455 109.045ZM84.5485 112.451L82.9639 112.114L86.5994 104.342L88.184 104.679L86.7095 107.831L90.3364 108.602L91.811 105.45L93.3956 105.787L89.76 113.559L88.1754 113.222L89.7517 109.852L86.1247 109.081L84.5485 112.451ZM91.8474 114.002L95.483 106.231L98.8869 106.954C99.4034 107.064 99.8166 107.247 100.126 107.505C100.44 107.754 100.631 108.054 100.7 108.403C100.777 108.754 100.72 109.132 100.53 109.538C100.364 109.893 100.117 110.191 99.7893 110.432C99.4692 110.675 99.102 110.844 98.6876 110.939C99.0478 111.199 99.2786 111.515 99.3798 111.887C99.4811 112.259 99.43 112.662 99.2266 113.097C99.0165 113.546 98.7104 113.916 98.3085 114.205C97.9144 114.495 97.4581 114.689 96.9396 114.786C96.4323 114.877 95.893 114.862 95.3218 114.741L91.8474 114.002ZM98.2185 108.163L96.493 107.796L95.5778 109.752L97.3032 110.119C97.6475 110.192 97.9543 110.162 98.2234 110.028C98.5038 109.888 98.7169 109.663 98.8626 109.351C99.0016 109.054 99.0123 108.801 98.8946 108.593C98.7882 108.379 98.5628 108.236 98.2185 108.163ZM94.0066 113.111L95.9081 113.515C96.2916 113.597 96.6369 113.567 96.9441 113.425C97.2626 113.277 97.5032 113.03 97.6659 112.682C97.8218 112.348 97.8287 112.067 97.6865 111.838C97.5555 111.603 97.2983 111.445 96.9149 111.363L95.0134 110.959L94.0066 113.111ZM103.524 116.676C102.914 116.546 102.398 116.325 101.977 116.012C101.555 115.699 101.237 115.321 101.023 114.877C100.821 114.428 100.729 113.934 100.748 113.397C100.775 112.861 100.926 112.299 101.201 111.712C101.472 111.133 101.824 110.618 102.258 110.168C102.7 109.721 103.194 109.355 103.739 109.073C104.295 108.785 104.879 108.594 105.49 108.501C106.102 108.408 106.712 108.426 107.323 108.556C107.933 108.686 108.449 108.907 108.871 109.22C109.292 109.532 109.604 109.913 109.807 110.363C110.021 110.807 110.114 111.297 110.087 111.833C110.068 112.37 109.923 112.929 109.652 113.509C109.377 114.096 109.019 114.613 108.577 115.061C108.143 115.51 107.648 115.879 107.092 116.167C106.547 116.45 105.968 116.637 105.357 116.731C104.746 116.824 104.135 116.805 103.524 116.676ZM104.135 115.371C104.643 115.479 105.144 115.458 105.635 115.308C106.131 115.15 106.581 114.887 106.985 114.519C107.401 114.146 107.734 113.691 107.985 113.154C108.236 112.618 108.348 112.12 108.322 111.661C108.304 111.203 108.158 110.817 107.883 110.504C107.611 110.183 107.221 109.969 106.713 109.86C106.212 109.754 105.714 109.78 105.218 109.937C104.727 110.088 104.274 110.346 103.862 110.713C103.45 111.079 103.118 111.53 102.867 112.067C102.616 112.603 102.502 113.104 102.525 113.571C102.551 114.031 102.699 114.421 102.971 114.742C103.246 115.055 103.634 115.265 104.135 115.371ZM116.332 119.207L114.618 118.843L114.771 116.999L111.402 116.283L109.947 117.85L108.303 117.5L115.073 110.395L116.834 110.769L116.332 119.207ZM112.451 115.143L114.881 115.66L115.15 112.216L112.451 115.143ZM119.326 119.843L117.742 119.506L121.377 111.735L124.605 112.421C125.168 112.541 125.614 112.747 125.942 113.04C126.28 113.327 126.484 113.673 126.553 114.078C126.629 114.484 126.557 114.923 126.337 115.394C126.086 115.93 125.713 116.361 125.217 116.686C124.732 117.005 124.188 117.192 123.586 117.247L124.632 120.971L122.707 120.562L121.82 117.051L120.74 116.821L119.326 119.843ZM124.025 113.66L122.382 113.311L121.319 115.582L122.963 115.932C123.346 116.013 123.695 115.976 124.009 115.819C124.331 115.665 124.575 115.41 124.741 115.055C124.903 114.707 124.919 114.408 124.787 114.156C124.663 113.907 124.409 113.741 124.025 113.66ZM126.029 121.268L129.665 113.496L132.552 114.11C133.405 114.291 134.071 114.616 134.548 115.084C135.034 115.554 135.316 116.12 135.393 116.781C135.482 117.438 135.35 118.142 134.998 118.896C134.642 119.657 134.147 120.293 133.512 120.803C132.889 121.308 132.178 121.659 131.381 121.856C130.591 122.054 129.77 122.063 128.917 121.882L126.029 121.268ZM128.198 120.355L129.501 120.632C130.041 120.746 130.554 120.736 131.039 120.6C131.532 120.466 131.973 120.221 132.363 119.866C132.761 119.512 133.084 119.071 133.331 118.542C133.578 118.013 133.688 117.53 133.66 117.094C133.643 116.652 133.489 116.281 133.2 115.981C132.918 115.682 132.507 115.475 131.967 115.36L130.665 115.083L128.198 120.355Z" fill="white"/>
<rect width="132" height="132.891" rx="20" transform="matrix(0.978148 0.207912 -0.423725 0.905791 56.3096 0)" stroke="url(#paint1_linear_1_303)" stroke-width="3" shape-rendering="crispEdges"/>
</g>
<defs>
<filter id="filter0_dd_1_303" x="-5" y="0" width="225.425" height="187.816" filterUnits="userSpaceOnUse" color-interpolation-filters="sRGB">
<feFlood flood-opacity="0" result="BackgroundImageFix"/>
<feColorMatrix in="SourceAlpha" type="matrix" values="0 0 0 0 0 0 0 0 0 0 0 0 0 0 0 0 0 0 127 0" result="hardAlpha"/>
<feOffset dx="3" dy="5"/>
<feComposite in2="hardAlpha" operator="out"/>
<feColorMatrix type="matrix" values="0 0 0 0 0.27451 0 0 0 0 0.2 0 0 0 0 0.560784 0 0 0 1 0"/>
<feBlend mode="normal" in2="BackgroundImageFix" result="effect1_dropShadow_1_303"/>
<feColorMatrix in="SourceAlpha" type="matrix" values="0 0 0 0 0 0 0 0 0 0 0 0 0 0 0 0 0 0 127 0" result="hardAlpha"/>
<feOffset dx="15" dy="20"/>
<feGaussianBlur stdDeviation="10"/>
<feComposite in2="hardAlpha" operator="out"/>
<feColorMatrix type="matrix" values="0 0 0 0 0 0 0 0 0 0 0 0 0 0 0 0 0 0 0.12 0"/>
<feBlend mode="normal" in2="effect1_dropShadow_1_303" result="effect2_dropShadow_1_303"/>
<feBlend mode="normal" in="SourceGraphic" in2="effect2_dropShadow_1_303" result="shape"/>
</filter>
<linearGradient id="paint0_linear_1_303" x1="66" y1="0" x2="66" y2="132.891" gradientUnits="userSpaceOnUse">
<stop stop-color="#30389A"/>
<stop offset="1" stop-color="#4D267E"/>
</linearGradient>
<linearGradient id="paint1_linear_1_303" x1="66" y1="0" x2="66" y2="132.891" gradientUnits="userSpaceOnUse">
<stop stop-color="#3D44A6"/>
<stop offset="1" stop-color="#432079"/>
</linearGradient>
<clipPath id="clip0_1_303">
<rect width="56" height="56" fill="white" transform="matrix(0.978148 0.207912 -0.431141 0.902285 83.9641 28.7828)"/>
</clipPath>
</defs>
</svg>
