<svg width="24" height="24" viewBox="0 0 24 24" fill="none" xmlns="http://www.w3.org/2000/svg">
<path opacity="0.5" fill-rule="evenodd" clip-rule="evenodd" d="M12 2C7.582 2 4 5.646 4 10.143C4 14.605 6.553 19.813 10.537 21.674C10.9949 21.8884 11.4944 21.9996 12 21.9996C12.5056 21.9996 13.0051 21.8884 13.463 21.674C17.447 19.812 20 14.605 20 10.144C20 5.645 16.418 2 12 2ZM12 14C13.0609 14 14.0783 13.5786 14.8284 12.8284C15.5786 12.0783 16 11.0609 16 10C16 8.93913 15.5786 7.92172 14.8284 7.17157C14.0783 6.42143 13.0609 6 12 6C10.9391 6 9.92172 6.42143 9.17157 7.17157C8.42143 7.92172 8 8.93913 8 10C8 11.0609 8.42143 12.0783 9.17157 12.8284C9.92172 13.5786 10.9391 14 12 14Z" fill="#85B5F1"/>
<path fill-rule="evenodd" clip-rule="evenodd" d="M12 14C13.0609 14 14.0783 13.5786 14.8284 12.8284C15.5786 12.0783 16 11.0609 16 10C16 8.93913 15.5786 7.92172 14.8284 7.17157C14.0783 6.42143 13.0609 6 12 6C10.9391 6 9.92172 6.42143 9.17157 7.17157C8.42143 7.92172 8 8.93913 8 10C8 11.0609 8.42143 12.0783 9.17157 12.8284C9.92172 13.5786 10.9391 14 12 14ZM12.75 8.5C12.75 8.30109 12.671 8.11032 12.5303 7.96967C12.3897 7.82902 12.1989 7.75 12 7.75C11.8011 7.75 11.6103 7.82902 11.4697 7.96967C11.329 8.11032 11.25 8.30109 11.25 8.5V9.25H10.5C10.3011 9.25 10.1103 9.32902 9.96967 9.46967C9.82902 9.61032 9.75 9.80109 9.75 10C9.75 10.1989 9.82902 10.3897 9.96967 10.5303C10.1103 10.671 10.3011 10.75 10.5 10.75H11.25V11.5C11.25 11.6989 11.329 11.8897 11.4697 12.0303C11.6103 12.171 11.8011 12.25 12 12.25C12.1989 12.25 12.3897 12.171 12.5303 12.0303C12.671 11.8897 12.75 11.6989 12.75 11.5V10.75H13.5C13.6989 10.75 13.8897 10.671 14.0303 10.5303C14.171 10.3897 14.25 10.1989 14.25 10C14.25 9.80109 14.171 9.61032 14.0303 9.46967C13.8897 9.32902 13.6989 9.25 13.5 9.25H12.75V8.5Z" fill="#5498EE"/>
</svg>
