<svg width="129" height="36" viewBox="0 0 129 36" fill="none" xmlns="http://www.w3.org/2000/svg">
<g clip-path="url(#clip0_1_251)">
<path d="M18.1681 19.8888C18.1681 22.2942 17.4582 24.3445 16.0544 26.0395C14.6507 27.7346 12.7629 28.5902 10.391 28.5902C9.39062 28.5902 8.43865 28.3803 7.53509 27.9767C6.63152 27.5732 5.93771 27.0243 5.43752 26.314H5.37298V36.0001H0V11.7848H5.11482V13.7866H5.21163C5.74409 13.0601 6.45403 12.479 7.3576 12.0108C8.26116 11.5588 9.29381 11.3167 10.4233 11.3167C12.7144 11.3167 14.5861 12.1561 16.0221 13.8189C17.4582 15.514 18.1681 17.5319 18.1681 19.8888ZM12.9565 19.8888C12.9565 18.7588 12.6176 17.774 11.94 16.9507C11.2623 16.1274 10.3265 15.7238 9.11632 15.7238C7.9546 15.7238 7.01876 16.1436 6.27655 16.9992C5.55047 17.8548 5.17936 18.8234 5.17936 19.9211C5.17936 21.035 5.55047 22.0198 6.27655 22.8593C7.00263 23.6987 7.9546 24.1184 9.11632 24.1184C10.3265 24.1184 11.2623 23.6987 11.94 22.8754C12.6176 22.0359 12.9565 21.0512 12.9565 19.8888Z" fill="#434242"/>
<path d="M30.3985 11.4458L30.1726 16.1758C29.7531 16.0628 29.3013 16.0144 28.8011 16.0144C27.5103 16.0144 26.5422 16.418 25.913 17.209C25.2837 18.0001 24.961 18.8395 24.961 19.7113V28.1059H19.588V11.7848H24.7674V14.1418H24.8319C25.2514 13.2862 25.8484 12.6081 26.639 12.0915C27.4297 11.5749 28.301 11.3167 29.2691 11.3167C29.7854 11.3167 30.1565 11.3651 30.3985 11.4458Z" fill="#434242"/>
<path d="M46.2108 20.1471C46.2108 20.7445 46.1947 21.1642 46.1786 21.4225H34.3354C34.4161 22.2942 34.8517 23.0368 35.6101 23.618C36.3684 24.2153 37.2559 24.5059 38.2401 24.5059C39.8214 24.5059 41.0153 23.9409 41.8544 22.7947L45.5977 25.1516C44.0003 27.4763 41.5317 28.6225 38.1917 28.6225C35.6262 28.6225 33.4964 27.8476 31.7861 26.314C30.0758 24.7642 29.2045 22.6655 29.2045 20.0019C29.2045 17.3705 30.0435 15.2557 31.7054 13.6575C33.3835 12.0431 35.481 11.2521 38.0142 11.2521C40.4668 11.2521 42.4352 12.0431 43.9519 13.6252C45.4525 15.2234 46.2108 17.3866 46.2108 20.1471ZM34.3354 18.0808H41.2574C41.2574 17.1767 40.9831 16.4341 40.4184 15.853C39.8536 15.2718 39.063 14.9651 38.0465 14.9651C37.0461 14.9651 36.191 15.2718 35.481 15.8853C34.7872 16.4987 34.4 17.2252 34.3354 18.0808Z" fill="#434242"/>
<path d="M65.7505 19.8888C65.7505 22.2942 65.0406 24.3445 63.6368 26.0395C62.2331 27.7346 60.3452 28.5902 57.9734 28.5902C56.973 28.5902 56.021 28.3803 55.1175 27.9767C54.2139 27.5732 53.5201 27.0243 53.0199 26.314H52.9554V36.0001H47.5824V11.7848H52.6972V13.7866H52.794C53.3265 13.0601 54.0364 12.479 54.94 12.0108C55.8436 11.5588 56.8762 11.3167 58.0057 11.3167C60.2968 11.3167 62.1685 12.1561 63.6045 13.8189C65.0406 15.514 65.7505 17.5319 65.7505 19.8888ZM60.5389 19.8888C60.5389 18.7588 60.2 17.774 59.5224 16.9507C58.8447 16.1274 57.9089 15.7238 56.6987 15.7238C55.537 15.7238 54.6012 16.1436 53.8589 16.9992C53.1329 17.8548 52.7618 18.8234 52.7618 19.9211C52.7618 21.035 53.1329 22.0198 53.8589 22.8593C54.585 23.6987 55.537 24.1184 56.6987 24.1184C57.9089 24.1184 58.8447 23.6987 59.5224 22.8754C60.2 22.0359 60.5389 21.0512 60.5389 19.8888Z" fill="#434242"/>
<path d="M69.6551 16.9346L66.9283 14.0126C68.8807 12.1723 71.3171 11.2521 74.2214 11.2521C76.9159 11.2521 78.836 11.9301 79.9977 13.3023C81.1595 14.6745 81.7403 16.87 81.7403 19.8888V28.122H76.803V26.3785H76.7062C76.3189 27.0404 75.6897 27.557 74.8345 27.9445C73.9793 28.3319 73.0596 28.5256 72.0754 28.5256C71.1073 28.5256 70.2037 28.3803 69.3647 28.0897C68.5257 27.7992 67.7673 27.2503 67.1219 26.427C66.4604 25.6198 66.1377 24.6189 66.1377 23.4081C66.1377 19.7274 69.639 17.9032 76.6255 17.9032V17.6449C76.6255 16.8862 76.3512 16.2888 75.8026 15.8853C75.254 15.4817 74.5441 15.2718 73.6728 15.2718C72.2045 15.2557 70.8653 15.8207 69.6551 16.9346ZM76.803 21.5678V21.0027H76.1092C72.7692 21.0027 71.0912 21.7453 71.0912 23.2306C71.0912 23.7956 71.3171 24.2153 71.785 24.4897C72.2368 24.7642 72.7854 24.8933 73.4308 24.8933C74.4957 24.8933 75.3347 24.5866 75.9156 23.9893C76.5126 23.4081 76.803 22.5848 76.803 21.5678Z" fill="#434242"/>
<path d="M89.1948 11.7848H83.8218V28.122H89.1948V11.7848Z" fill="#434242"/>
<path d="M102.329 11.4458L102.103 16.1758C101.683 16.0628 101.232 16.0144 100.731 16.0144C99.4405 16.0144 98.4724 16.418 97.8431 17.209C97.2139 18.0001 96.8912 18.8395 96.8912 19.7113V28.1059H91.5182V11.7848H96.6975V14.1418H96.7621C97.1816 13.2862 97.7786 12.6081 98.5692 12.0915C99.3598 11.5749 100.231 11.3167 101.199 11.3167C101.699 11.3167 102.087 11.3651 102.329 11.4458Z" fill="#434242"/>
<path d="M118.125 20.1471C118.125 20.7445 118.109 21.1642 118.093 21.4225H106.249C106.33 22.2942 106.766 23.0368 107.524 23.618C108.283 24.2153 109.17 24.5059 110.154 24.5059C111.735 24.5059 112.929 23.9409 113.768 22.7947L117.512 25.1516C115.914 27.4763 113.446 28.6225 110.106 28.6225C107.54 28.6225 105.41 27.8476 103.7 26.314C101.99 24.7642 101.119 22.6655 101.119 20.0019C101.119 17.3705 101.958 15.2557 103.619 13.6575C105.298 12.0431 107.395 11.2521 109.928 11.2521C112.381 11.2521 114.349 12.0431 115.866 13.6252C117.383 15.2234 118.125 17.3866 118.125 20.1471ZM106.266 18.0808H113.188C113.188 17.1767 112.913 16.4341 112.349 15.853C111.784 15.2718 110.993 14.9651 109.977 14.9651C108.976 14.9651 108.121 15.2718 107.411 15.8853C106.701 16.4987 106.33 17.2252 106.266 18.0808Z" fill="#434242"/>
<path d="M128.387 4.29422C128.258 1.7274 126.08 -0.112954 123.675 5.03797e-05C120.465 0.161485 120.658 2.79288 117.447 2.93817C114.236 3.0996 114.172 0.452068 110.961 0.613503C108.395 0.742651 106.572 2.92202 106.685 5.3274C106.798 7.71664 108.831 9.73458 111.397 9.60543C114.607 9.444 114.414 6.81261 117.625 6.66732C120.013 6.55431 122.207 8.37853 122.336 10.9453C122.498 14.1579 119.851 14.2225 120.013 17.435C120.142 20.0018 122.32 21.8261 124.724 21.7131C127.112 21.6001 129.129 19.566 129 16.9992C128.839 13.7866 126.209 13.9803 126.063 10.7678C125.902 7.55521 128.532 7.50678 128.387 4.29422Z" fill="#5498EE"/>
<path d="M86.5164 0.581177C84.0316 0.581177 81.9985 2.59911 81.9985 5.10136C81.9985 7.58746 84.0154 9.62154 86.5164 9.62154C89.0012 9.62154 91.0342 7.6036 91.0342 5.10136C91.0342 2.59911 89.0012 0.581177 86.5164 0.581177Z" fill="#5498EE"/>
</g>
<defs>
<clipPath id="clip0_1_251">
<rect width="129" height="36" fill="white"/>
</clipPath>
</defs>
</svg>
