<svg width="217" height="182" viewBox="0 0 217 182" fill="none" xmlns="http://www.w3.org/2000/svg">
<g filter="url(#filter0_dd_1_354)">
<rect width="134" height="129" rx="20" transform="matrix(0.978148 -0.207912 0.431141 0.902284 30 27.8601)" fill="url(#paint0_linear_1_354)" shape-rendering="crispEdges"/>
<g clip-path="url(#clip0_1_354)">
<path d="M120.493 81.0141C119.945 81.1305 119.306 80.8154 119.064 80.3103L115.224 72.274C114.983 71.769 115.231 71.2651 115.779 71.1487C116.326 71.0323 116.966 71.3474 117.207 71.8525L121.047 79.8888C121.288 80.3939 121.04 80.8977 120.493 81.0141Z" fill="white"/>
<path d="M133.38 78.2748C132.833 78.3911 132.193 78.0761 131.952 77.571L128.019 69.3407C127.778 68.8358 128.026 68.3319 128.574 68.2155C129.121 68.0991 129.761 68.4142 130.002 68.9193L133.935 77.1495C134.176 77.6546 133.928 78.1584 133.38 78.2748Z" fill="white"/>
<path d="M131.633 74.6167L118.745 77.356C118.197 77.4724 117.558 77.1574 117.317 76.6523C117.075 76.1472 117.323 75.6435 117.871 75.5271L130.759 72.7877C131.306 72.6713 131.946 72.9864 132.187 73.4915C132.429 73.9966 132.18 74.5003 131.633 74.6167Z" fill="white"/>
<path d="M109.308 54.1781C108.76 54.2945 108.121 53.9794 107.879 53.4743L107.005 51.6454C106.764 51.1403 107.012 50.6365 107.56 50.5201C108.107 50.4037 108.747 50.7188 108.988 51.2239L109.862 53.0529C110.103 53.558 109.855 54.0618 109.308 54.1781Z" fill="white"/>
<path d="M114.114 64.2374C113.567 64.3538 112.927 64.0387 112.686 63.5336L111.812 61.7047C111.571 61.1997 111.819 60.6958 112.366 60.5794C112.914 60.463 113.553 60.7781 113.795 61.2832L114.669 63.1121C114.91 63.6173 114.662 64.121 114.114 64.2374Z" fill="white"/>
<path d="M113.038 54.7129C112.784 54.7669 112.488 54.7315 112.209 54.5941C111.651 54.3192 111.375 53.7402 111.591 53.3008L112.375 51.7096C112.592 51.2703 113.219 51.1367 113.777 51.4116C114.335 51.6864 114.612 52.2654 114.395 52.7048L113.611 54.2961C113.503 54.5158 113.292 54.659 113.038 54.7129Z" fill="white"/>
<path d="M108.726 63.465C108.472 63.5189 108.176 63.4836 107.897 63.3461C107.339 63.0714 107.062 62.4924 107.279 62.0529L108.063 60.4615C108.28 60.0222 108.907 59.8887 109.465 60.1635C110.023 60.4384 110.299 61.0173 110.083 61.4568L109.299 63.0481C109.191 63.2679 108.98 63.411 108.726 63.465Z" fill="white"/>
<path d="M117.718 56.9236L115.735 57.3451C115.187 57.4615 114.548 57.1464 114.307 56.6412C114.065 56.1362 114.313 55.6325 114.861 55.5161L116.844 55.0946C117.391 54.9783 118.031 55.2933 118.272 55.7984C118.513 56.3035 118.265 56.8072 117.718 56.9236Z" fill="white"/>
<path d="M106.813 59.2415L104.83 59.663C104.282 59.7794 103.643 59.4644 103.402 58.9592C103.16 58.4541 103.408 57.9504 103.956 57.834L105.939 57.4126C106.486 57.2962 107.126 57.6112 107.367 58.1163C107.608 58.6215 107.36 59.1251 106.813 59.2415Z" fill="white"/>
<path d="M106.729 56.0539C106.475 56.1078 106.179 56.0725 105.9 55.9351L103.88 54.9399C103.322 54.665 103.045 54.0861 103.262 53.6467C103.479 53.2072 104.106 53.0738 104.664 53.3487L106.684 54.3439C107.242 54.6187 107.519 55.1977 107.302 55.6372C107.194 55.8567 106.983 56 106.729 56.0539Z" fill="white"/>
<path d="M117.839 61.5279C117.585 61.5818 117.289 61.5465 117.01 61.4091L114.99 60.4138C114.432 60.1388 114.155 59.5599 114.372 59.1205C114.588 58.6811 115.216 58.5478 115.774 58.8225L117.794 59.8179C118.352 60.0927 118.628 60.6717 118.412 61.1111C118.304 61.3308 118.092 61.474 117.839 61.5279Z" fill="white"/>
<path d="M123.441 72.3286C121.494 72.7424 119.444 72.8974 117.347 72.7895C112.686 72.5496 107.842 70.9751 103.709 68.3563C99.4366 65.6494 96.1345 62.0343 94.1598 57.9017C89.2204 47.5645 94.3188 37.2171 105.525 34.8351C116.731 32.4532 129.866 38.9251 134.806 49.2621C136.609 53.035 137.137 56.9302 136.333 60.5262C135.548 64.035 133.556 67.0444 130.57 69.2291C128.546 70.7105 126.147 71.7533 123.441 72.3286ZM106.399 36.664C96.2861 38.8135 91.6851 48.1516 96.1426 57.4802C99.7072 64.9402 108.312 70.4651 117.067 70.9159C118.959 71.0133 120.809 70.8733 122.567 70.4997C125.01 69.9804 127.175 69.0395 129.001 67.7032C134.597 63.6081 136.097 56.5351 132.823 49.6835C128.366 40.3549 116.512 34.5144 106.399 36.664Z" fill="white"/>
<path d="M121.693 68.6707C112.673 70.5879 102.101 65.3787 98.1253 57.0587C94.1497 48.7387 98.2532 40.4101 107.273 38.4929C116.292 36.5757 126.865 41.7848 130.84 50.1049C134.816 58.4249 130.712 66.7535 121.693 68.6707ZM108.147 40.3219C100.22 42.0066 96.6143 49.3257 100.108 56.6372C103.602 63.9488 112.893 68.5265 120.819 66.8417C128.745 65.1569 132.351 57.838 128.858 50.5264C125.364 43.2149 116.073 38.6371 108.147 40.3219Z" fill="white"/>
<path d="M113.24 62.4085C110.234 63.0475 106.71 61.3111 105.384 58.5377C104.059 55.7644 105.427 52.9882 108.434 52.3492C111.44 51.7101 114.964 53.4465 116.289 56.2198C117.615 58.9932 116.247 61.7694 113.24 62.4085ZM109.308 54.1781C107.394 54.5848 106.524 56.3515 107.367 58.1163C108.21 59.8811 110.453 60.9862 112.366 60.5795C114.28 60.1728 115.15 58.406 114.307 56.6412C113.463 54.8764 111.221 53.7715 109.308 54.1781Z" fill="white"/>
<path d="M126.942 51.0409C126.688 51.0948 126.392 51.0594 126.113 50.922L124.093 49.9268C123.824 49.7939 123.529 49.7517 123.264 49.808C122.999 49.8643 122.796 50.0123 122.691 50.2248L122.299 51.0206C121.651 52.3365 119.764 52.7377 118.093 51.9146C117.284 51.5158 116.645 50.8926 116.295 50.1597C115.945 49.4269 115.925 48.6722 116.239 48.0347L116.631 47.2391C116.736 47.0266 116.729 46.7749 116.613 46.5308C116.496 46.2865 116.283 46.0788 116.013 45.9459C115.744 45.813 115.449 45.7707 115.184 45.827C114.919 45.8833 114.716 46.0314 114.611 46.2439L114.219 47.0395C113.905 47.677 113.295 48.1211 112.5 48.29C111.706 48.4588 110.823 48.3322 110.013 47.9335C108.343 47.1103 107.511 45.3697 108.159 44.0537L108.943 42.4625C109.16 42.0231 109.788 41.8896 110.345 42.1645C110.903 42.4393 111.18 43.0183 110.963 43.4578L110.179 45.049C109.963 45.4877 110.24 46.0678 110.797 46.3422C111.067 46.4752 111.362 46.5173 111.626 46.461C111.891 46.4047 112.095 46.2568 112.199 46.0442L112.591 45.2487C112.905 44.6112 113.516 44.167 114.31 43.9982C115.105 43.8293 115.988 43.956 116.797 44.3548C117.607 44.7535 118.245 45.3767 118.595 46.1095C118.946 46.8424 118.965 47.597 118.651 48.2346L118.259 49.0302C118.155 49.2427 118.161 49.4943 118.278 49.7385C118.395 49.9829 118.608 50.1905 118.877 50.3235C119.434 50.5979 120.063 50.464 120.279 50.0254L120.671 49.2298C120.985 48.5923 121.596 48.1481 122.39 47.9793C123.185 47.8104 124.068 47.9371 124.877 48.3357L126.897 49.331C127.455 49.6058 127.732 50.1848 127.515 50.6243C127.407 50.8437 127.196 50.9869 126.942 51.0409Z" fill="white"/>
<path d="M126.506 61.6034C124.866 61.9519 122.944 61.0048 122.221 59.4921C121.498 57.9793 122.244 56.465 123.884 56.1164C125.524 55.7679 127.447 56.715 128.169 58.2278C128.892 59.7406 128.146 61.2548 126.506 61.6034ZM124.758 57.9455C124.212 58.0617 123.963 58.5665 124.204 59.0708C124.445 59.5751 125.086 59.8908 125.632 59.7746C126.179 59.6584 126.428 59.1536 126.187 58.6493C125.946 58.145 125.305 57.8293 124.758 57.9455Z" fill="white"/>
</g>
<path d="M92.5438 118.539L93.1228 117.342C93.5848 117.641 94.091 117.844 94.6414 117.95C95.1919 118.055 95.7175 118.055 96.2183 117.948C96.7348 117.839 97.0951 117.655 97.2994 117.397C97.5114 117.137 97.5381 116.841 97.3795 116.509C97.2346 116.206 96.976 115.998 96.6037 115.887C96.2279 115.768 95.6811 115.733 94.9633 115.782C93.8502 115.852 92.9609 115.758 92.2954 115.502C91.63 115.246 91.1507 114.811 90.8575 114.198C90.6264 113.714 90.5594 113.267 90.6564 112.857C90.75 112.44 90.985 112.083 91.3614 111.789C91.7422 111.485 92.2377 111.269 92.8481 111.139C93.5445 110.991 94.2392 110.974 94.9321 111.089C95.625 111.205 96.2727 111.433 96.8753 111.774L96.3263 112.952C95.8555 112.67 95.3775 112.482 94.8922 112.386C94.4113 112.281 93.9321 112.28 93.4548 112.381C92.9931 112.48 92.6606 112.65 92.4573 112.892C92.2618 113.132 92.24 113.411 92.3917 113.729C92.5228 114.003 92.7632 114.19 93.113 114.291C93.4593 114.384 93.9892 114.411 94.7026 114.37C95.8427 114.303 96.7546 114.407 97.4382 114.683C98.1296 114.958 98.634 115.427 98.9513 116.091C99.179 116.568 99.2399 117.02 99.1341 117.448C99.0326 117.867 98.7798 118.231 98.3756 118.539C97.9792 118.846 97.4484 119.071 96.7833 119.212C96.0633 119.365 95.3396 119.384 94.6119 119.268C93.8843 119.152 93.1949 118.909 92.5438 118.539ZM107.239 116.799L101.652 117.986L97.9529 110.245L103.54 109.057L104.13 110.291L100.127 111.142L101.069 113.113L104.86 112.307L105.45 113.541L101.659 114.347L102.647 116.415L106.649 115.564L107.239 116.799ZM116.176 114.899L114.462 115.263L113.004 113.701L109.635 114.417L109.79 116.256L108.147 116.606L107.582 108.198L109.342 107.824L116.176 114.899ZM109.515 113.083L111.945 112.566L109.208 109.653L109.515 113.083ZM119.17 114.263L117.585 114.599L113.886 106.858L117.114 106.172C117.677 106.052 118.219 106.048 118.738 106.161C119.261 106.264 119.725 106.468 120.129 106.771C120.54 107.074 120.858 107.459 121.082 107.928C121.338 108.463 121.402 108.958 121.275 109.414C121.153 109.861 120.869 110.224 120.424 110.501L124.475 113.135L122.55 113.544L118.811 111.023L117.731 111.253L119.17 114.263ZM117.704 107.406L116.06 107.755L117.142 110.018L118.785 109.669C119.168 109.588 119.421 109.422 119.544 109.174C119.674 108.923 119.655 108.621 119.486 108.268C119.32 107.921 119.076 107.671 118.752 107.517C118.437 107.362 118.087 107.325 117.704 107.406ZM130.45 109.384L131.948 110.139C131.805 110.67 131.511 111.127 131.064 111.508C130.613 111.882 130.067 112.137 129.425 112.274C128.823 112.402 128.221 112.422 127.619 112.336C127.014 112.242 126.437 112.054 125.889 111.773C125.337 111.485 124.839 111.118 124.393 110.672C123.951 110.217 123.591 109.697 123.312 109.112C123.032 108.528 122.877 107.968 122.846 107.434C122.823 106.898 122.913 106.41 123.116 105.969C123.323 105.52 123.635 105.143 124.05 104.84C124.47 104.529 124.989 104.307 125.607 104.176C126.249 104.039 126.904 104.039 127.573 104.175C128.246 104.303 128.878 104.562 129.47 104.953L128.903 106.147C128.48 105.839 128.034 105.628 127.565 105.513C127.101 105.389 126.65 105.373 126.211 105.467C125.718 105.571 125.337 105.784 125.067 106.103C124.794 106.416 124.647 106.801 124.624 107.259C124.602 107.717 124.72 108.217 124.978 108.758C125.237 109.299 125.576 109.756 125.995 110.128C126.411 110.493 126.867 110.754 127.365 110.911C127.858 111.06 128.352 111.082 128.845 110.978C129.283 110.885 129.642 110.697 129.921 110.415C130.2 110.133 130.376 109.789 130.45 109.384ZM135.665 110.757L134.08 111.093L130.381 103.352L131.965 103.015L133.466 106.155L137.093 105.384L135.592 102.244L137.177 101.907L140.876 109.649L139.292 109.986L137.688 106.629L134.061 107.4L135.665 110.757ZM151.187 107.457L145.6 108.645L141.901 100.903L147.488 99.7156L148.078 100.95L144.075 101.801L145.017 103.771L148.808 102.965L149.398 104.2L145.607 105.006L146.595 107.074L150.597 106.223L151.187 107.457ZM154.325 106.79L152.776 107.12L149.076 99.3779L150.731 99.0261L157.027 103.651L154.441 98.2377L155.99 97.9084L159.689 105.65L158.034 106.002L151.738 101.376L154.325 106.79ZM169.18 103.633L167.713 103.944L167.32 103.122C167.121 103.895 166.493 104.395 165.437 104.619C164.865 104.741 164.289 104.752 163.707 104.653C163.125 104.554 162.568 104.362 162.036 104.078C161.5 103.786 161.013 103.417 160.575 102.969C160.141 102.512 159.787 101.995 159.511 101.418C159.231 100.833 159.08 100.273 159.057 99.7374C159.034 99.2016 159.123 98.7133 159.327 98.2726C159.538 97.8302 159.849 97.4539 160.261 97.1436C160.681 96.8317 161.196 96.6109 161.807 96.4812C162.48 96.3382 163.166 96.3314 163.866 96.461C164.565 96.5905 165.217 96.8455 165.822 97.226L165.243 98.4225C164.301 97.7877 163.357 97.5709 162.411 97.7722C161.918 97.8769 161.536 98.0892 161.267 98.4089C160.994 98.7214 160.846 99.1066 160.823 99.5646C160.801 100.023 160.919 100.522 161.178 101.064C161.44 101.612 161.78 102.073 162.199 102.445C162.615 102.81 163.074 103.066 163.575 103.214C164.085 103.36 164.602 103.377 165.126 103.266C165.572 103.171 165.926 103 166.187 102.754C166.453 102.499 166.617 102.182 166.677 101.803L166.242 100.894L164.047 101.36L163.483 100.18L167.157 99.3991L169.18 103.633ZM172.54 102.918L170.955 103.255L167.256 95.5137L168.841 95.1769L172.54 102.918ZM176.184 102.144L174.635 102.473L170.936 94.7316L172.591 94.3798L178.887 99.0051L176.3 93.5914L177.849 93.2621L181.548 101.004L179.893 101.355L173.597 96.7301L176.184 102.144ZM189.22 99.373L183.633 100.561L179.934 92.819L185.521 91.6314L186.111 92.8657L182.108 93.7165L183.05 95.687L186.841 94.8812L187.431 96.1155L183.64 96.9214L184.628 98.9894L188.63 98.1386L189.22 99.373Z" fill="white"/>
<rect width="134" height="129" rx="20" transform="matrix(0.978148 -0.207912 0.431141 0.902284 30 27.8601)" stroke="url(#paint1_linear_1_354)" stroke-width="3" shape-rendering="crispEdges"/>
</g>
<defs>
<filter id="filter0_dd_1_354" x="-5" y="-6.10352e-05" width="226.689" height="184.255" filterUnits="userSpaceOnUse" color-interpolation-filters="sRGB">
<feFlood flood-opacity="0" result="BackgroundImageFix"/>
<feColorMatrix in="SourceAlpha" type="matrix" values="0 0 0 0 0 0 0 0 0 0 0 0 0 0 0 0 0 0 127 0" result="hardAlpha"/>
<feOffset dx="-3" dy="5"/>
<feComposite in2="hardAlpha" operator="out"/>
<feColorMatrix type="matrix" values="0 0 0 0 0.368627 0 0 0 0 0.623529 0 0 0 0 0.980392 0 0 0 1 0"/>
<feBlend mode="normal" in2="BackgroundImageFix" result="effect1_dropShadow_1_354"/>
<feColorMatrix in="SourceAlpha" type="matrix" values="0 0 0 0 0 0 0 0 0 0 0 0 0 0 0 0 0 0 127 0" result="hardAlpha"/>
<feOffset dx="-15" dy="20"/>
<feGaussianBlur stdDeviation="10"/>
<feComposite in2="hardAlpha" operator="out"/>
<feColorMatrix type="matrix" values="0 0 0 0 0 0 0 0 0 0.18 0 0 0 0 0.45 0 0 0 0.12 0"/>
<feBlend mode="normal" in2="effect1_dropShadow_1_354" result="effect2_dropShadow_1_354"/>
<feBlend mode="normal" in="SourceGraphic" in2="effect2_dropShadow_1_354" result="shape"/>
</filter>
<linearGradient id="paint0_linear_1_354" x1="67" y1="0" x2="67" y2="129" gradientUnits="userSpaceOnUse">
<stop stop-color="#5DBCF9"/>
<stop offset="1" stop-color="#5D89F9"/>
</linearGradient>
<linearGradient id="paint1_linear_1_354" x1="67" y1="0" x2="67" y2="129" gradientUnits="userSpaceOnUse">
<stop stop-color="#6BC6FF"/>
<stop offset="1" stop-color="#5583F1"/>
</linearGradient>
<clipPath id="clip0_1_354">
<rect width="56" height="56" fill="white" transform="matrix(0.978148 -0.207912 0.431141 0.902284 76.7706 37.7972)"/>
</clipPath>
</defs>
</svg>
