<svg width="215" height="182" viewBox="0 0 215 182" fill="none" xmlns="http://www.w3.org/2000/svg">
<g filter="url(#filter0_dd_1_349)">
<rect width="133" height="129" rx="20" transform="matrix(0.978148 0.207912 -0.423725 0.905791 54.6606 0)" fill="url(#paint0_linear_1_349)" shape-rendering="crispEdges"/>
<g clip-path="url(#clip0_1_349)">
<path d="M102.198 32.5485L90.4725 30.0562C88.4184 29.6196 86.0878 30.7798 85.198 32.682C84.4194 34.3464 85.0729 35.9666 86.5508 36.6293L71.0159 69.8378C69.4217 73.2459 71.1196 76.6566 74.7999 77.4389C78.4802 78.2211 82.7734 76.0839 84.3677 72.6758L99.8654 39.5465C101.64 39.5752 103.591 38.4214 104.333 36.8363C105.259 34.8549 104.252 32.9851 102.198 32.5485ZM82.6559 72.312C81.4695 74.8482 78.2802 76.4359 75.5414 75.8537C72.8026 75.2716 71.5413 72.7379 72.7277 70.2017L73.2097 69.1713L76.6332 69.899C77.1467 70.0082 77.6374 69.7639 77.8598 69.2884C78.0823 68.8128 77.8883 68.4231 77.3747 68.3139L73.9512 67.5862L75.323 64.6537L80.2871 65.7089C80.8006 65.818 81.2913 65.5738 81.5138 65.0982C81.7362 64.6227 81.5422 64.2329 81.0286 64.1237L76.0645 63.0686L77.4363 60.1361L80.8599 60.8638C81.3734 60.9729 81.864 60.7287 82.0865 60.2531C82.309 59.7776 82.1149 59.3878 81.6014 59.2786L78.1779 58.5509L79.5126 55.6977L84.4767 56.7529C84.9902 56.862 85.4809 56.6178 85.7033 56.1422C85.9258 55.6667 85.7317 55.2769 85.2182 55.1677L80.2541 54.1126L81.6259 51.1801L85.0494 51.9078C85.563 52.0169 86.0536 51.7727 86.2761 51.2971C86.4985 50.8216 86.3045 50.4318 85.791 50.3226L82.3675 49.5949L83.7393 46.6624L88.7034 47.7176C89.2169 47.8267 89.7075 47.5825 89.93 47.107C90.1525 46.6314 89.9584 46.2416 89.4449 46.1325L84.4808 45.0773L85.8526 42.1448L89.2761 42.8725C89.7896 42.9817 90.2803 42.7374 90.5027 42.2619C90.7252 41.7863 90.5312 41.3965 90.0176 41.2874L86.5941 40.5597L88.2625 36.9931L98.1907 39.1034L82.6559 72.312ZM99.714 37.8587L87.9884 35.3664C86.8758 35.1299 86.3907 34.1554 86.8727 33.1251C87.3546 32.0947 88.5813 31.4841 89.6939 31.7206L101.419 34.2129C102.532 34.4494 103.017 35.4239 102.535 36.4543C102.053 37.4846 100.827 38.0952 99.714 37.8587ZM112.73 47.2478L110.47 46.2447L111.283 45.1104L112.37 45.6029C112.504 45.7185 112.761 45.7731 112.932 45.8095C113.446 45.9186 114.034 45.8693 114.658 45.7407C115.443 45.4717 116.216 45.0261 116.635 44.331C117.14 43.654 117.265 42.9836 117.22 42.2768C117.051 41.631 116.675 41.0281 115.941 40.7851L112.204 39.1194C111.508 38.7971 110.749 38.8101 109.916 38.9816C109.131 39.2505 108.358 39.6962 107.939 40.3913C107.434 41.0682 107.309 41.7386 107.355 42.4455C107.523 43.0912 107.9 43.6941 108.633 43.9371L109.72 44.4295L108.907 45.5638L106.647 44.5607C106.256 44.3905 105.632 44.5191 105.324 44.9765L92.2829 62.5947C92.0119 62.9728 92.0462 63.5029 92.5227 63.6913L93.2188 64.0136L91.7413 65.9651C91.5445 66.1847 91.556 66.3614 91.5303 66.6173C91.5417 66.794 91.7244 67.0071 91.8955 67.0435L92.6773 67.384L85.7319 76.7999C85.4609 77.1779 85.4952 77.7081 85.9717 77.8965C86.0573 77.9147 86.0573 77.9147 86.1429 77.9329C86.5708 78.0238 87.0244 77.8588 87.2953 77.4807L94.3634 68.0038L95.1451 68.3442C95.2307 68.3624 95.2307 68.3624 95.3163 68.3806C95.7442 68.4715 96.1978 68.3065 96.4688 67.9285L97.9463 65.9769L98.6424 66.2992C98.728 66.3174 98.728 66.3174 98.8136 66.3356C98.9848 66.3719 99.193 66.3291 99.3157 66.268C99.5239 66.2251 99.8063 66.0238 99.8805 65.8652L112.97 48.3444C113.241 47.9663 113.121 47.418 112.73 47.2478ZM109.34 41.8218C109.28 41.5477 109.391 41.3099 109.54 40.9929C109.736 40.7733 110.019 40.5719 110.35 40.468C110.558 40.4251 110.852 40.4004 111.023 40.4368C111.109 40.455 111.194 40.4732 111.28 40.4914L115.017 42.1572C115.237 42.291 115.42 42.5041 115.479 42.7783C115.539 43.0524 115.428 43.2902 115.28 43.6072C115.083 43.8268 114.801 44.0282 114.47 44.1321C114.139 44.2361 113.882 44.1815 113.54 44.1087L109.802 42.4429C109.583 42.3091 109.4 42.096 109.34 41.8218ZM95.4473 66.4914L93.9694 65.8287L94.8194 64.6152L96.2972 65.2779L95.4473 66.4914ZM106.382 46.3343L107.86 46.9969L102.158 54.7601L100.68 54.0975L106.382 46.3343ZM98.9075 64.5256L94.511 62.4583L99.6337 55.5306L104.03 57.5979L98.9075 64.5256ZM105.114 56.0855L103.636 55.4228L109.338 47.6596L110.816 48.3223L105.114 56.0855ZM117.17 72.1543L112.719 71.2083L114.647 67.0869C114.869 66.6114 114.675 66.2216 114.162 66.1124L108.855 64.9845C108.342 64.8754 107.851 65.1196 107.629 65.5952L105.701 69.7165L101.25 68.7705C100.737 68.6614 100.246 68.9056 100.024 69.3812L97.7249 74.2951C97.5025 74.7706 97.6965 75.1604 98.21 75.2696L102.661 76.2156L100.733 80.3369C100.51 80.8125 100.704 81.2022 101.218 81.3114L106.524 82.4393C107.038 82.5485 107.528 82.3042 107.751 81.8287L109.679 77.7073L114.129 78.6533C114.643 78.7625 115.134 78.5182 115.356 78.0427L117.655 73.1288C117.84 72.7325 117.683 72.2634 117.17 72.1543ZM114.015 76.8863L109.564 75.9403C109.051 75.8311 108.56 76.0754 108.338 76.5509L106.41 80.6723L102.815 79.9082L104.743 75.7868C104.966 75.3113 104.772 74.9215 104.258 74.8124L99.8074 73.8664L101.365 70.5376L105.815 71.4836C106.329 71.5927 106.819 71.3485 107.042 70.8729L108.97 66.7516L112.564 67.5157L110.637 71.637C110.414 72.1125 110.608 72.5023 111.122 72.6115L115.572 73.5575L114.015 76.8863Z" fill="white"/>
</g>
<path d="M39.2972 102.295L37.7126 101.958L38.2377 93.5255L39.9514 93.8897L39.3443 100.429L44.4 94.8353L46.0433 95.1846L39.2972 102.295ZM50.0236 104.575L48.3099 104.211L48.4626 102.367L45.0939 101.651L43.6383 103.218L41.995 102.869L48.7645 95.763L50.5252 96.1373L50.0236 104.575ZM46.143 100.512L48.5728 101.028L48.8419 97.584L46.143 100.512ZM57.9146 103.767L58.4899 104.965C57.9164 105.345 57.283 105.604 56.5898 105.744C55.8999 105.876 55.2341 105.874 54.5924 105.737C53.9899 105.609 53.4801 105.393 53.063 105.09C52.6492 104.779 52.3393 104.402 52.1332 103.96C51.9305 103.511 51.8387 103.017 51.8579 102.479C51.8884 101.936 52.0409 101.371 52.3155 100.784C52.59 100.197 52.9443 99.6789 53.3783 99.2294C53.8201 98.7815 54.3135 98.4164 54.8586 98.1339C55.4149 97.8458 55.9931 97.658 56.5933 97.5705C57.2047 97.4774 57.8195 97.4965 58.4377 97.6279C59.0793 97.7643 59.6147 98.0175 60.0438 98.3876C60.4842 98.7521 60.7781 99.2089 60.9255 99.7581L59.435 100.517C59.354 100.101 59.1715 99.7557 58.8875 99.4802C58.6146 99.1991 58.259 99.012 57.8208 98.9189C57.3279 98.8141 56.8337 98.8405 56.3384 98.9982C55.8465 99.1485 55.3944 99.407 54.9821 99.7734C54.5697 100.14 54.2365 100.595 53.9822 101.138C53.728 101.682 53.6121 102.187 53.6346 102.654C53.6605 103.113 53.8092 103.504 54.0808 103.824C54.3558 104.138 54.7397 104.347 55.2327 104.451C55.6709 104.545 56.1253 104.53 56.5958 104.407C57.0663 104.284 57.506 104.07 57.9146 103.767ZM66.0646 105.499L66.6399 106.697C66.0664 107.077 65.433 107.337 64.7397 107.476C64.0498 107.608 63.3841 107.606 62.7424 107.47C62.1399 107.342 61.63 107.126 61.2129 106.822C60.7992 106.511 60.4893 106.134 60.2832 105.692C60.0804 105.243 59.9887 104.749 60.0079 104.212C60.0383 103.668 60.1908 103.103 60.4654 102.516C60.74 101.929 61.0943 101.411 61.5282 100.962C61.97 100.514 62.4635 100.149 63.0086 99.8662C63.5649 99.5782 64.1431 99.3904 64.7433 99.3028C65.3546 99.2097 65.9694 99.2288 66.5876 99.3603C67.2293 99.4966 67.7647 99.7499 68.1938 100.12C68.6341 100.484 68.928 100.941 69.0755 101.49L67.5849 102.249C67.504 101.834 67.3215 101.488 67.0374 101.213C66.7645 100.931 66.409 100.744 65.9708 100.651C65.4778 100.546 64.9837 100.573 64.4884 100.73C63.9965 100.881 63.5443 101.139 63.132 101.506C62.7197 101.872 62.3864 102.327 62.1322 102.871C61.878 103.414 61.7621 103.919 61.7846 104.386C61.8105 104.846 61.9592 105.236 62.2308 105.557C62.5057 105.87 62.8897 106.079 63.3827 106.184C63.8209 106.277 64.2753 106.262 64.7458 106.139C65.2163 106.016 65.6559 105.803 66.0646 105.499ZM69.1458 108.64L67.5612 108.303L71.1968 100.531L72.7814 100.868L69.1458 108.64ZM72.7901 109.414L71.2407 109.085L74.8763 101.313L76.5313 101.665L77.6981 107.888L80.2405 102.453L81.7898 102.783L78.1543 110.554L76.4993 110.203L75.3325 103.98L72.7901 109.414ZM85.8261 112.185L80.2389 110.998L83.8745 103.226L89.4617 104.413L88.882 105.653L84.8794 104.802L83.954 106.78L87.7453 107.586L87.1657 108.825L83.3744 108.019L82.4032 110.095L86.4058 110.946L85.8261 112.185ZM90.051 113.083L93.6865 105.312L96.574 105.925C97.427 106.107 98.0924 106.431 98.5703 106.899C99.056 107.369 99.3377 107.935 99.4152 108.597C99.504 109.253 99.3721 109.958 99.0196 110.711C98.6637 111.472 98.1684 112.108 97.5339 112.618C96.9106 113.123 96.2001 113.474 95.4025 113.671C94.6128 113.87 93.7914 113.878 92.9385 113.697L90.051 113.083ZM92.2203 112.17L93.5232 112.447C94.0631 112.562 94.5757 112.551 95.0608 112.415C95.5538 112.281 95.9952 112.036 96.3851 111.681C96.7828 111.327 97.1054 110.886 97.3528 110.357C97.6003 109.828 97.7099 109.345 97.6817 108.909C97.6647 108.467 97.5114 108.096 97.2218 107.796C96.9401 107.497 96.5292 107.29 95.9893 107.175L94.6864 106.898L92.2203 112.17ZM104.464 116.147L98.8772 114.959L102.513 107.188L108.1 108.375L107.52 109.614L103.518 108.764L102.592 110.742L106.384 111.548L105.804 112.787L102.013 111.981L101.041 114.057L105.044 114.908L104.464 116.147ZM110.091 117.343L108.506 117.006L109.031 108.573L110.745 108.937L110.138 115.477L115.193 109.883L116.837 110.232L110.091 117.343ZM113.714 118.268C113.425 118.207 113.227 118.069 113.12 117.855C113.014 117.641 113.021 117.404 113.143 117.143C113.265 116.882 113.459 116.689 113.725 116.562C113.994 116.428 114.274 116.392 114.563 116.453C114.845 116.513 115.039 116.65 115.145 116.864C115.255 117.07 115.249 117.304 115.127 117.565C115.005 117.826 114.81 118.023 114.54 118.157C114.271 118.291 113.996 118.328 113.714 118.268Z" fill="white"/>
<rect width="133" height="129" rx="20" transform="matrix(0.978148 0.207912 -0.423725 0.905791 54.6606 0)" stroke="#37ABE3" stroke-width="3" shape-rendering="crispEdges"/>
</g>
<defs>
<filter id="filter0_dd_1_349" x="-5" y="0" width="224.754" height="184.499" filterUnits="userSpaceOnUse" color-interpolation-filters="sRGB">
<feFlood flood-opacity="0" result="BackgroundImageFix"/>
<feColorMatrix in="SourceAlpha" type="matrix" values="0 0 0 0 0 0 0 0 0 0 0 0 0 0 0 0 0 0 127 0" result="hardAlpha"/>
<feOffset dx="3" dy="5"/>
<feComposite in2="hardAlpha" operator="out"/>
<feColorMatrix type="matrix" values="0 0 0 0 0.247059 0 0 0 0 0.647059 0 0 0 0 0.921569 0 0 0 1 0"/>
<feBlend mode="normal" in2="BackgroundImageFix" result="effect1_dropShadow_1_349"/>
<feColorMatrix in="SourceAlpha" type="matrix" values="0 0 0 0 0 0 0 0 0 0 0 0 0 0 0 0 0 0 127 0" result="hardAlpha"/>
<feOffset dx="15" dy="20"/>
<feGaussianBlur stdDeviation="10"/>
<feComposite in2="hardAlpha" operator="out"/>
<feColorMatrix type="matrix" values="0 0 0 0 0 0 0 0 0 0 0 0 0 0 0 0 0 0 0.12 0"/>
<feBlend mode="normal" in2="effect1_dropShadow_1_349" result="effect2_dropShadow_1_349"/>
<feBlend mode="normal" in="SourceGraphic" in2="effect2_dropShadow_1_349" result="shape"/>
</filter>
<linearGradient id="paint0_linear_1_349" x1="66.5" y1="0" x2="66.5" y2="129" gradientUnits="userSpaceOnUse">
<stop stop-color="#3E6EEA"/>
<stop offset="1" stop-color="#3EB6EA"/>
</linearGradient>
<clipPath id="clip0_1_349">
<rect width="56" height="56" fill="white" transform="matrix(0.978148 0.207912 -0.423725 0.905791 83.8447 26.1204)"/>
</clipPath>
</defs>
</svg>
