<svg width="1440" height="1279" viewBox="0 0 1440 1279" fill="none" xmlns="http://www.w3.org/2000/svg">
<path d="M1774.94 146.538L1589.34 534.97M475.703 2865.56L661.309 2477.13M377.889 2844.77L1677.13 125.747M1579.31 104.956L280.074 2823.98M182.259 2803.19L1481.5 84.1646M1383.68 63.3734L84.4443 2782.4M-13.3704 2761.61L1285.87 42.5822M1188.05 21.7911L-111.185 2740.82M-209 2720.03L-23.3942 2331.59M1090.24 0.999906L904.634 389.432M1589.34 534.97L904.634 389.432M1589.34 534.97L1403.73 923.403M904.634 389.432L719.029 777.864M719.029 777.864L1403.73 923.403M719.029 777.864L533.423 1166.3M1403.73 923.403L1218.13 1311.83M1218.13 1311.83L533.423 1166.3M1218.13 1311.83L1032.52 1700.27M533.423 1166.3L347.817 1554.73M347.817 1554.73L1032.52 1700.27M347.817 1554.73L162.211 1943.16M1032.52 1700.27L846.915 2088.7M846.915 2088.7L162.211 1943.16M846.915 2088.7L661.309 2477.13M162.211 1943.16L-23.3942 2331.59M-23.3942 2331.59L661.309 2477.13" stroke="#E4EBF3" stroke-width="0.5"/>
</svg>
