<svg width="20" height="20" viewBox="0 0 20 20" fill="none" xmlns="http://www.w3.org/2000/svg">
<path d="M9.92539 11.2242L13.4863 7.66325C13.6017 7.54787 13.7293 7.48884 13.8693 7.48617C14.0092 7.48349 14.1396 7.54252 14.2603 7.66325C14.381 7.78398 14.4414 7.91298 14.4414 8.05025C14.4414 8.18753 14.3787 8.31889 14.2533 8.44432L10.3901 12.3074C10.3205 12.3716 10.2472 12.4196 10.1704 12.4517C10.0936 12.4837 10.0105 12.4998 9.92122 12.4998C9.8319 12.4998 9.74884 12.4837 9.67203 12.4517C9.59521 12.4196 9.52475 12.3716 9.46066 12.3074L5.59751 8.44432C5.47743 8.32423 5.41952 8.19768 5.4238 8.06467C5.42807 7.93167 5.49057 7.80481 5.6113 7.68409C5.73202 7.56335 5.86102 7.50298 5.9983 7.50298C6.13558 7.50298 6.26458 7.56335 6.3853 7.68409L9.92539 11.2242Z" fill="#5498EE"/>
</svg>
