<svg width="1440" height="1279" viewBox="0 0 1440 1279" fill="none" xmlns="http://www.w3.org/2000/svg">
<path d="M-334 146.538L-148.394 534.97M965.24 2865.56L779.634 2477.13M1063.05 2844.77L-236.185 125.747M-138.37 104.956L1160.87 2823.98M1258.68 2803.19L-40.5557 84.1646M57.2591 63.3734L1356.5 2782.4M1454.31 2761.61L155.074 42.5822M252.889 21.7911L1552.13 2740.82M1649.94 2720.03L1464.34 2331.59M350.703 0.999906L536.309 389.432M-148.394 534.97L536.309 389.432M-148.394 534.97L37.2114 923.403M536.309 389.432L721.915 777.864M721.915 777.864L37.2114 923.403M721.915 777.864L907.52 1166.3M37.2114 923.403L222.817 1311.83M222.817 1311.83L907.52 1166.3M222.817 1311.83L408.423 1700.27M907.52 1166.3L1093.13 1554.73M1093.13 1554.73L408.423 1700.27M1093.13 1554.73L1278.73 1943.16M408.423 1700.27L594.029 2088.7M594.029 2088.7L1278.73 1943.16M594.029 2088.7L779.634 2477.13M1278.73 1943.16L1464.34 2331.59M1464.34 2331.59L779.634 2477.13" stroke="#E4EBF3" stroke-width="0.5"/>
</svg>
