<svg width="14" height="14" viewBox="0 0 14 14" fill="none" xmlns="http://www.w3.org/2000/svg">
<path d="M5.01674 9.67947C3.71818 9.67947 2.61351 9.22408 1.70274 8.31331C0.791944 7.40252 0.336548 6.29808 0.336548 5.00002C0.336548 3.70195 0.791944 2.59751 1.70274 1.68672C2.61351 0.775945 3.71794 0.320557 5.01601 0.320557C6.31408 0.320557 7.41851 0.775945 8.3293 1.68672C9.24009 2.59751 9.69549 3.70219 9.69549 5.00074C9.69549 5.54556 9.60601 6.06653 9.42705 6.56364C9.24809 7.06075 9.00583 7.50963 8.70028 7.91027L13.2868 12.4968C13.4022 12.6122 13.4612 12.7364 13.4639 12.8694C13.4666 13.0024 13.4076 13.1293 13.2868 13.25C13.1661 13.3707 13.0371 13.4311 12.8998 13.4311C12.7625 13.4311 12.6335 13.3707 12.5128 13.25L7.92626 8.68429C7.50959 9.00052 7.0527 9.24545 6.55559 9.41906C6.05848 9.59267 5.54553 9.67947 5.01674 9.67947ZM5.01601 8.59618C6.02028 8.59618 6.87071 8.24789 7.5673 7.55131C8.26388 6.85472 8.61217 6.00429 8.61217 5.00002C8.61217 3.99574 8.26388 3.14531 7.5673 2.44872C6.87071 1.75214 6.02028 1.40385 5.01601 1.40385C4.01173 1.40385 3.1613 1.75214 2.46471 2.44872C1.76815 3.14531 1.41986 3.99574 1.41986 5.00002C1.41986 6.00429 1.76815 6.85472 2.46471 7.55131C3.1613 8.24789 4.01173 8.59618 5.01601 8.59618Z" fill="#5498EE"/>
</svg>
